<?xml version="1.0" encoding="UTF-8"?>
<svg version="1.1" xmlns="http://www.w3.org/2000/svg" width="559" height="447">
<path d="M0 0 C13.53 0 27.06 0 41 0 C41 13.86 41 27.72 41 42 C48.92 39.525 48.92 39.525 57 37 C66.6601327 34.62733583 74.90216278 33.72127409 85 33 C85 22.11 85 11.22 85 0 C90.82076811 -0.02290639 96.641381 -0.04283426 102.4621582 -0.05493164 C104.44393441 -0.05997267 106.42570689 -0.06680538 108.4074707 -0.07543945 C111.24952109 -0.08751515 114.09152247 -0.09323045 116.93359375 -0.09765625 C117.82525742 -0.10281754 118.71692108 -0.10797882 119.63560486 -0.11329651 C121.75740601 -0.11349177 123.8791078 -0.0621003 126 0 C127.77198783 1.77198783 127.13030506 4.33246025 127.1328125 6.73046875 C127.13410156 7.92736328 127.13539063 9.12425781 127.13671875 10.35742188 C127.13285156 11.62134766 127.12898437 12.88527344 127.125 14.1875 C127.12886719 15.40115234 127.13273438 16.61480469 127.13671875 17.86523438 C127.13478516 19.68571289 127.13478516 19.68571289 127.1328125 21.54296875 C127.13168457 22.63633545 127.13055664 23.72970215 127.12939453 24.85620117 C126.94026805 30.91288755 126.43173137 36.95576087 126 43 C116.1 43 106.2 43 96 43 C96 51.91 96 60.82 96 70 C97.98 69.67 99.96 69.34 102 69 C110.25 69 118.5 69 127 69 C127 100.02 127 131.04 127 163 C113.14 163 99.28 163 85 163 C85 136.6 85 110.2 85 83 C70.10748806 86.50412046 58.10339624 90.40188678 45.109375 97.8984375 C43 99 43 99 41 99 C41 120.12 41 141.24 41 163 C26.15 163 11.3 163 -4 163 C-0.52280774 133.44386581 7.50222091 113.02058077 31 94 C46.48736093 81.98742634 65.59488858 73.77215877 85 71 C85 62.09 85 53.18 85 44 C70.17845065 45.46990572 56.87286603 48.17651654 42.97265625 53.80078125 C41.16447702 54.53023069 39.34115229 55.22509774 37.49609375 55.85546875 C28.02138709 59.18020107 19.2568747 65.29100803 11.671875 71.81640625 C9 74 9 74 7 74 C7 74.66 7 75.32 7 76 C6.34 76 5.68 76 5 76 C4.731875 76.61875 4.46375 77.2375 4.1875 77.875 C3 80 3 80 0 82 C0 54.94 0 27.88 0 0 Z M10 11 C10 26.84 10 42.68 10 59 C13.63 56.69 17.26 54.38 21 52 C22.70027344 51.23429687 24.40054688 50.46859375 26.15234375 49.6796875 C28.46180062 48.30533184 28.46180062 48.30533184 30 46 C31.11862344 40.00642654 30.84858417 34.18974455 30.5625 28.125 C30.5173233 26.46625394 30.47626421 24.80739029 30.43945312 23.1484375 C30.34822153 19.09370004 30.17234035 15.05531727 30 11 C23.4 11 16.8 11 10 11 Z M96 11 C96 17.93 96 24.86 96 32 C102.6 32 109.2 32 116 32 C116 25.07 116 18.14 116 11 C109.4 11 102.8 11 96 11 Z M103.1875 79.4375 C102.25292969 79.51871094 101.31835938 79.59992188 100.35546875 79.68359375 C97.98492582 79.87247243 97.98492582 79.87247243 96 81 C96 104.43 96 127.86 96 152 C102.6 152 109.2 152 116 152 C116 127.91 116 103.82 116 79 C111.61377793 79 107.51659373 79.04394602 103.1875 79.4375 Z M29 110 C25.85144292 113.54626955 22.93542929 117.27689718 20 121 C19.4328125 121.68191406 18.865625 122.36382812 18.28125 123.06640625 C12.67252834 130.45022865 8 142.64537553 8 152 C15.26 152 22.52 152 30 152 C30 138.14 30 124.28 30 110 C29.67 110 29.34 110 29 110 Z " fill="#E4E4E4" transform="translate(218,92)"/>
<path d="M0 0 C2.97 0 5.94 0 9 0 C9.99 2.97 10.98 5.94 12 9 C13.99097846 6.01353231 14.94124926 3.40312738 16 0 C18.64 0 21.28 0 24 0 C24.47985967 1.27057182 24.9588593 2.54146848 25.4375 3.8125 C25.70433594 4.52019531 25.97117187 5.22789062 26.24609375 5.95703125 C26.86225186 7.62672396 27.43719235 9.31157704 28 11 C29.32 7.37 30.64 3.74 32 0 C34.64 0 37.28 0 40 0 C38.76813722 9.83366324 35.4405635 18.77106708 32 28 C29.36 28 26.72 28 24 28 C22.515 23.05 22.515 23.05 21 18 C19.33094759 21.33810482 18.1258614 24.46157845 17 28 C14.36 28 11.72 28 9 28 C7.49223384 23.89864435 5.99512424 19.79347933 4.5 15.6875 C4.07074219 14.52025391 3.64148438 13.35300781 3.19921875 12.15039062 C2.79316406 11.03212891 2.38710938 9.91386719 1.96875 8.76171875 C1.59169922 7.73006592 1.21464844 6.69841309 0.82617188 5.63549805 C0 3 0 3 0 0 Z " fill="#DEDEDE" transform="translate(275,280)"/>
<path d="M0 0 C2.64 0 5.28 0 8 0 C8 3.3 8 6.6 8 10 C10.64 9.67 13.28 9.34 16 9 C15.979375 7.88625 15.95875 6.7725 15.9375 5.625 C16 2 16 2 17 0 C19.64 0 22.28 0 25 0 C25 9.24 25 18.48 25 28 C22.36 28 19.72 28 17 28 C16 27 16 27 15.90234375 24.93359375 C15.91394531 24.10988281 15.92554688 23.28617187 15.9375 22.4375 C15.94652344 21.61121094 15.95554687 20.78492188 15.96484375 19.93359375 C15.97644531 19.29550781 15.98804688 18.65742188 16 18 C13.36 18 10.72 18 8 18 C8 21.3 8 24.6 8 28 C5.36 28 2.72 28 0 28 C0 18.76 0 9.52 0 0 Z " fill="#DADADA" transform="translate(325,280)"/>
<path d="M0 0 C2.31 0 4.62 0 7 0 C7 3.3 7 6.6 7 10 C10.3 10 13.6 10 17 10 C17 6.7 17 3.4 17 0 C19.33294775 -0.04241723 21.66702567 -0.04092937 24 0 C25 1 25 1 25.11352539 3.59204102 C25.10828857 4.71795654 25.10305176 5.84387207 25.09765625 7.00390625 C25.09443359 8.21884766 25.09121094 9.43378906 25.08789062 10.68554688 C25.07951172 11.96494141 25.07113281 13.24433594 25.0625 14.5625 C25.05798828 15.84576172 25.05347656 17.12902344 25.04882812 18.45117188 C25.03699545 21.63416022 25.02051068 24.81705762 25 28 C22.36 28 19.72 28 17 28 C17 24.7 17 21.4 17 18 C13.7 18 10.4 18 7 18 C7 21.3 7 24.6 7 28 C4.69 28 2.38 28 0 28 C0 18.76 0 9.52 0 0 Z " fill="#E1E1E1" transform="translate(173,280)"/>
<path d="M0 0 C2.64 0 5.28 0 8 0 C18 22.53333333 18 22.53333333 18 28 C15.03 28 12.06 28 9 28 C8.505 25.525 8.505 25.525 8 23 C3.92584936 23.17173709 3.92584936 23.17173709 0 24 C-0.66 25.32 -1.32 26.64 -2 28 C-4.97 28 -7.94 28 -11 28 C-10.3882618 24.41404513 -9.41740761 21.3215351 -7.96875 17.98828125 C-7.57042969 17.06595703 -7.17210937 16.14363281 -6.76171875 15.19335938 C-6.34535156 14.24267578 -5.92898437 13.29199219 -5.5 12.3125 C-5.08363281 11.35021484 -4.66726562 10.38792969 -4.23828125 9.39648438 C-1.23028274 2.46056548 -1.23028274 2.46056548 0 0 Z M3 13 C2.67 13.99 2.34 14.98 2 16 C2.99 15.67 3.98 15.34 5 15 C4.34 14.34 3.68 13.68 3 13 Z " fill="#DDDDDD" transform="translate(218,280)"/>
<path d="M0 0 C3.125 -0.5 3.125 -0.5 7 0 C9.42952606 2.40317545 11.2262164 5.08917564 13 8 C13.35191406 7.4225 13.70382812 6.845 14.06640625 6.25 C15.59101256 3.9571195 17.04025227 1.93849233 19 0 C22.875 -0.5 22.875 -0.5 26 0 C25.2428311 5.30018228 22.85032872 8.74951658 19.875 13.125 C17.19416595 17.73971815 17.18898918 22.77444916 17 28 C10.84765625 28.09765625 10.84765625 28.09765625 9 28 C7.29492137 26.29492137 7.87482554 23.89228814 7.8125 21.5625 C7.39896916 15.67494221 5.7420823 12.03742943 2.375 7.25390625 C0.88401112 4.8098705 0.39736614 2.81633255 0 0 Z " fill="#D6D6D6" transform="translate(360,280)"/>
<path d="M0 0 C5.19689119 -0.70466321 5.19689119 -0.70466321 8 0 C10.21956005 2.40408404 11.62753981 5.04393189 13 8 C15.66735273 5.51047079 17.55746343 3.36591866 19 0 C21.64 0 24.28 0 27 0 C26.37787942 3.13157326 25.31305924 5.34039664 23.5625 8 C20.34992535 12.90996484 18.76384602 16.2876943 18.375 22.25 C18.30023438 23.32765625 18.22546875 24.4053125 18.1484375 25.515625 C18.09945313 26.33546875 18.05046875 27.1553125 18 28 C15.03 28 12.06 28 9 28 C8.99742187 27.26136719 8.99484375 26.52273438 8.9921875 25.76171875 C8.65812334 16.99810237 6.34611546 9.34611546 0 3 C0 2.01 0 1.02 0 0 Z " fill="#D4D4D4" transform="translate(239,280)"/>
<path d="M0 0 C4 1 4 1 5.703125 3.50390625 C6.21359375 4.51324219 6.7240625 5.52257812 7.25 6.5625 C8.03117187 8.08037109 8.03117187 8.08037109 8.828125 9.62890625 C9.21484375 10.41136719 9.6015625 11.19382812 10 12 C10.66 12 11.32 12 12 12 C13.65 8.04 15.3 4.08 17 0 C18.65 0 20.3 0 22 0 C22 6.93 22 13.86 22 21 C20.35 20.67 18.7 20.34 17 20 C16.505 17.525 16.505 17.525 16 15 C15.01 16.98 14.02 18.96 13 21 C10.6875 20.875 10.6875 20.875 8 20 C6.1875 16.9375 6.1875 16.9375 5 14 C4.34 16.31 3.68 18.62 3 21 C2.01 21 1.02 21 0 21 C0 14.07 0 7.14 0 0 Z " fill="#BCBDBD" transform="translate(324,327)"/>
<path d="M0 0 C13.48527587 -0.37115438 13.48527587 -0.37115438 15.890625 1.36328125 C17.460021 3.67869295 17.9330577 5.18842329 18 8 C16.0625 10.8125 16.0625 10.8125 14 13 C14.66 13.94875 15.32 14.8975 16 15.875 C18 19 18 19 18 21 C15.8125 21.5 15.8125 21.5 13 21 C11.49690488 19.04115592 10.35900374 17.03206416 9.2109375 14.84765625 C8.06038961 12.67562123 8.06038961 12.67562123 5 12 C5 14.97 5 17.94 5 21 C3.35 21 1.7 21 0 21 C0 14.07 0 7.14 0 0 Z M5 4 C5 5.65 5 7.3 5 9 C7.31 9 9.62 9 12 9 C12.59070014 7.05396726 12.59070014 7.05396726 13 5 C11.81575674 3.58422523 11.81575674 3.58422523 8.4375 3.9375 C6.7359375 3.9684375 6.7359375 3.9684375 5 4 Z " fill="#C0C0C0" transform="translate(375,327)"/>
<path d="M0 0 C13.44869269 -0.37014751 13.44869269 -0.37014751 15.92578125 1.29296875 C17.74109309 4.17766429 17.35319931 6.70347311 17 10 C15.5 11.9375 15.5 11.9375 14 13 C14.495 13.763125 14.99 14.52625 15.5 15.3125 C17 18 17 18 17 21 C14.6875 20.8125 14.6875 20.8125 12 20 C9.79029126 17.10451959 9 15.66842255 9 12 C7.35 12 5.7 12 4 12 C4 14.97 4 17.94 4 21 C2.68 21 1.36 21 0 21 C0 14.07 0 7.14 0 0 Z M4 4 C4 5.65 4 7.3 4 9 C6.64 9 9.28 9 12 9 C12.59070014 7.05396726 12.59070014 7.05396726 13 5 C12.01732141 3.79438816 12.01732141 3.79438816 10.15234375 3.90234375 C8.1015625 3.93489583 6.05078125 3.96744792 4 4 Z " fill="#A8A8A8" transform="translate(250,327)"/>
<path d="M0 0 C1.32 0 2.64 0 4 0 C4 2.97 4 5.94 4 9 C8.455 8.505 8.455 8.505 13 8 C13.33 5.36 13.66 2.72 14 0 C15.32 0 16.64 0 18 0 C18 6.93 18 13.86 18 21 C16.35 20.67 14.7 20.34 13 20 C13 17.69 13 15.38 13 13 C10.03 12.67 7.06 12.34 4 12 C4 14.97 4 17.94 4 21 C2.68 21 1.36 21 0 21 C0 14.07 0 7.14 0 0 Z " fill="#C6C6C6" transform="translate(191,327)"/>
<path d="M0 0 C4.95 0 9.9 0 15 0 C15 1.32 15 2.64 15 4 C11.37 4 7.74 4 4 4 C4 5.65 4 7.3 4 9 C7.3 9 10.6 9 14 9 C14 9.99 14 10.98 14 12 C10.7 12 7.4 12 4 12 C4 13.65 4 15.3 4 17 C7.96 17 11.92 17 16 17 C15.67 18.32 15.34 19.64 15 21 C10.05 21 5.1 21 0 21 C0 14.07 0 7.14 0 0 Z " fill="#C4C4C4" transform="translate(216,327)"/>
<path d="M0 0 C4.95 0 9.9 0 15 0 C15 1.32 15 2.64 15 4 C11.37 4 7.74 4 4 4 C4 5.65 4 7.3 4 9 C7.3 9 10.6 9 14 9 C14 9.99 14 10.98 14 12 C10.7 12 7.4 12 4 12 C4 13.65 4 15.3 4 17 C7.63 17 11.26 17 15 17 C15 18.32 15 19.64 15 21 C10.05 21 5.1 21 0 21 C0 14.07 0 7.14 0 0 Z " fill="#C0C0C0" transform="translate(353,327)"/>
<path d="M0 0 C1.32 0 2.64 0 4 0 C4 2.97 4 5.94 4 9 C7.3 9 10.6 9 14 9 C14 6.03 14 3.06 14 0 C14.99 0 15.98 0 17 0 C17 6.93 17 13.86 17 21 C16.01 21 15.02 21 14 21 C14 18.03 14 15.06 14 12 C10.7 12 7.4 12 4 12 C4 14.97 4 17.94 4 21 C2.68 21 1.36 21 0 21 C0 14.07 0 7.14 0 0 Z " fill="#E0E0E0" transform="translate(299,327)"/>
<path d="M0 0 C2.25 0.125 2.25 0.125 5 1 C7.3125 4.0625 7.3125 4.0625 9 7 C11.34058637 4.87219421 12.70700306 2.88437779 14 0 C15.32 0 16.64 0 18 0 C17.52685556 2.95715277 16.62998324 4.58971421 15 7.1875 C12.54149378 11.28501037 12.21327772 15.29722626 12 20 C10.35 20.33 8.7 20.66 7 21 C6.938125 19.0509375 6.938125 19.0509375 6.875 17.0625 C6.35694245 12.01741643 4.30602754 8.92179616 1.27734375 4.9453125 C0 3 0 3 0 0 Z " fill="#B1B1B1" transform="translate(273,327)"/>
<path d="M0 0 C5.94 0 11.88 0 18 0 C18 1.32 18 2.64 18 4 C16.02 4 14.04 4 12 4 C12 9.28 12 14.56 12 20 C10.35 20.33 8.7 20.66 7 21 C7 15.39 7 9.78 7 4 C4.69 4 2.38 4 0 4 C0 2.68 0 1.36 0 0 Z " fill="#B1B1B1" transform="translate(166,327)"/>
<path d="M0 0 C1.47906892 -0.02689216 2.95827483 -0.04634621 4.4375 -0.0625 C5.26121094 -0.07410156 6.08492188 -0.08570313 6.93359375 -0.09765625 C9 0 9 0 10 1 C10.04063832 2.66617115 10.042721 4.33388095 10 6 C10.66 6 11.32 6 12 6 C12.66 4.68 13.32 3.36 14 2 C13.50168276 5.68754757 12.89932357 7.60490662 10 10 C10.66 10.94875 11.32 11.8975 12 12.875 C14 16 14 16 14 18 C11.8125 18.5 11.8125 18.5 9 18 C7.4610868 16.04575512 6.29691519 14.03371633 5.11328125 11.84765625 C4.12923023 9.84157239 4.12923023 9.84157239 2 9 C2 8.34 2 7.68 2 7 C1.34 7 0.68 7 0 7 C0 4.69 0 2.38 0 0 Z M1 1 C1 2.65 1 4.3 1 6 C3.31 6 5.62 6 8 6 C8.59070014 4.05396726 8.59070014 4.05396726 9 2 C7.81575674 0.58422523 7.81575674 0.58422523 4.4375 0.9375 C2.7359375 0.9684375 2.7359375 0.9684375 1 1 Z " fill="#C5C5C5" transform="translate(379,330)"/>
<path d="M0 0 C1.65 0 3.3 0 5 0 C5 6.93 5 13.86 5 21 C3.35 20.67 1.7 20.34 0 20 C0 16.7 0 13.4 0 10 C-0.66 10 -1.32 10 -2 10 C-1.54177532 6.53058454 -1.10868317 3.32604951 0 0 Z " fill="#CCCCCC" transform="translate(341,327)"/>
<path d="M0 0 C1.32 0 2.64 0 4 0 C4 3.3 4 6.6 4 10 C6.31 10 8.62 10 11 10 C11.33 10.66 11.66 11.32 12 12 C9.36 12 6.72 12 4 12 C4 14.97 4 17.94 4 21 C2.68 21 1.36 21 0 21 C0 14.07 0 7.14 0 0 Z " fill="#B4B4B4" transform="translate(191,327)"/>
<path d="M0 0 C3.3 0 6.6 0 10 0 C10.66 1.32 11.32 2.64 12 4 C12.66 2.68 13.32 1.36 14 0 C14.36923077 6.52307692 14.36923077 6.52307692 12.5 8.9375 C12.005 9.288125 11.51 9.63875 11 10 C11.495 10.763125 11.99 11.52625 12.5 12.3125 C14 15 14 15 14 18 C11.6875 17.8125 11.6875 17.8125 9 17 C6.23803936 13.5475492 5.50486259 10.34181831 5 6 C6.32 5.67 7.64 5.34 9 5 C9 4.01 9 3.02 9 2 C6.36 1.67 3.72 1.34 1 1 C1 2.65 1 4.3 1 6 C0.67 6 0.34 6 0 6 C0 4.02 0 2.04 0 0 Z " fill="#A6A6A6" transform="translate(253,330)"/>
<path d="M0 0 C4 1 4 1 5.8125 3.9375 C6.204375 4.948125 6.59625 5.95875 7 7 C6.67 7.66 6.34 8.32 6 9 C5.34 8.67 4.68 8.34 4 8 C4 11.96 4 15.92 4 20 C2.68 20.33 1.36 20.66 0 21 C0 14.07 0 7.14 0 0 Z " fill="#C7C9C8" transform="translate(324,327)"/>
<path d="M0 0 C0.99 0 1.98 0 3 0 C3 6.93 3 13.86 3 21 C2.01 20.67 1.02 20.34 0 20 C0.66 20 1.32 20 2 20 C1.67 16.7 1.34 13.4 1 10 C0.01 10.495 0.01 10.495 -1 11 C-2.54613014 10.91348369 -4.08909387 10.75997364 -5.625 10.5625 C-6.44226563 10.46066406 -7.25953125 10.35882813 -8.1015625 10.25390625 C-8.72804688 10.17011719 -9.35453125 10.08632813 -10 10 C-10 9.67 -10 9.34 -10 9 C-6.7 9 -3.4 9 0 9 C0 6.03 0 3.06 0 0 Z " fill="#CDCDCD" transform="translate(313,327)"/>
<path d="M0 0 C1.47906892 -0.02689216 2.95827483 -0.04634621 4.4375 -0.0625 C5.26121094 -0.07410156 6.08492188 -0.08570313 6.93359375 -0.09765625 C9 0 9 0 10 1 C10.04063832 2.66617115 10.042721 4.33388095 10 6 C10.66 6 11.32 6 12 6 C12.66 4.68 13.32 3.36 14 2 C13.75 4.375 13.75 4.375 13 7 C10.9375 8.3125 10.9375 8.3125 9 9 C9 8.34 9 7.68 9 7 C7.02463255 7.34786708 7.02463255 7.34786708 5 8 C4.67 8.66 4.34 9.32 4 10 C3.34 9.67 2.68 9.34 2 9 C2 8.34 2 7.68 2 7 C1.34 7 0.68 7 0 7 C0 4.69 0 2.38 0 0 Z M1 1 C1 2.65 1 4.3 1 6 C3.31 6 5.62 6 8 6 C8.59070014 4.05396726 8.59070014 4.05396726 9 2 C7.81575674 0.58422523 7.81575674 0.58422523 4.4375 0.9375 C2.7359375 0.9684375 2.7359375 0.9684375 1 1 Z " fill="#929292" transform="translate(379,330)"/>
<path d="M0 0 C0.89203125 0.00902344 1.7840625 0.01804687 2.703125 0.02734375 C3.37859375 0.03894531 4.0540625 0.05054688 4.75 0.0625 C4.75 1.0525 4.75 2.0425 4.75 3.0625 C-0.2 3.0625 -5.15 3.0625 -10.25 3.0625 C-9.25 1.0625 -9.25 1.0625 -7.515625 0.44140625 C-4.96855716 0.01543111 -2.58143831 -0.03396629 0 0 Z " fill="#CBCCCC" transform="translate(227.25,343.9375)"/>
<path d="M0 0 C0.33 0 0.66 0 1 0 C1 3.63 1 7.26 1 11 C0.34 11 -0.32 11 -1 11 C-1 8.36 -1 5.72 -1 3 C-3.97 3 -6.94 3 -10 3 C-8 1 -8 1 -4.4375 0.9375 C-3.303125 0.958125 -2.16875 0.97875 -1 1 C-0.67 0.67 -0.34 0.34 0 0 Z " fill="#F8F8F8" transform="translate(314,336)"/>
<path d="M0 0 C0.33 1.32 0.66 2.64 1 4 C4.96 4 8.92 4 13 4 C13 4.66 13 5.32 13 6 C8.38 6 3.76 6 -1 6 C-1 1 -1 1 0 0 Z " fill="#FCFCFC" transform="translate(355,341)"/>
<path d="M0 0 C0.99 0 1.98 0 3 0 C4.06775224 1.96466413 5.06553465 3.96855359 6 6 C5.67 6.66 5.34 7.32 5 8 C4.34 7.67 3.68 7.34 3 7 C2.34 7.99 1.68 8.98 1 10 C0 9 0 9 -0.09765625 6.93359375 C-0.08605469 6.10988281 -0.07445312 5.28617187 -0.0625 4.4375 C-0.05347656 3.61121094 -0.04445313 2.78492188 -0.03515625 1.93359375 C-0.02355469 1.29550781 -0.01195312 0.65742188 0 0 Z " fill="#E6E6E6" transform="translate(325,328)"/>
<path d="M0 0 C2.475 0.99 2.475 0.99 5 2 C4.67 4.31 4.34 6.62 4 9 C3.34 8.34 2.68 7.68 2 7 C1.67 8.65 1.34 10.3 1 12 C0.67 12 0.34 12 0 12 C0 8.04 0 4.08 0 0 Z " fill="#787979" transform="translate(327,334)"/>
<path d="M0 0 C1.32 0 2.64 0 4 0 C3.40072174 3.35595828 2.15377564 5.37801226 0 8 C-0.38063221 5.6739143 -0.71269945 3.33944736 -1 1 C-0.67 0.67 -0.34 0.34 0 0 Z " fill="#A9A9A9" transform="translate(287,327)"/>
<path d="M0 0 C1.99954746 -0.04254356 4.00041636 -0.04080783 6 0 C7 1 7 1 7.0625 3.5625 C7.041875 4.366875 7.02125 5.17125 7 6 C6.01 6.495 6.01 6.495 5 7 C4.67 5.68 4.34 4.36 4 3 C2.35 2.67 0.7 2.34 -1 2 C-0.67 1.34 -0.34 0.68 0 0 Z " fill="#E2E2E2" transform="translate(259,328)"/>
<path d="M0 0 C0.33 0.66 0.66 1.32 1 2 C1.66 2 2.32 2 3 2 C3.33 1.34 3.66 0.68 4 0 C4 2.64 4 5.28 4 8 C1 7 1 7 -0.25 4.5625 C-1 2 -1 2 0 0 Z " fill="#6D6E6D" transform="translate(338,335)"/>
<path d="M0 0 C0.99 0.99 1.98 1.98 3 3 C2.6875 6.1875 2.6875 6.1875 2 9 C1.34 9 0.68 9 0 9 C0 6.03 0 3.06 0 0 Z " fill="#FAFAFA" transform="translate(251,338)"/>
<path d="M0 0 C1.134375 0.020625 2.26875 0.04125 3.4375 0.0625 C3.1075 1.0525 2.7775 2.0425 2.4375 3.0625 C2.4375 2.4025 2.4375 1.7425 2.4375 1.0625 C-0.5344385 2.18701727 -2.89690687 3.28543791 -5.5625 5.0625 C-4.43693182 0.07784091 -4.43693182 0.07784091 0 0 Z " fill="#B7B7B7" transform="translate(382.5625,279.9375)"/>
</svg>
