<?xml version="1.0" encoding="UTF-8"?>
<svg version="1.1" xmlns="http://www.w3.org/2000/svg" width="518" height="413">
<path d="M0 0 C4.07872882 2.55763897 7.48427906 5.72690662 11 9 C11.98355469 9.86625 12.96710938 10.7325 13.98046875 11.625 C23.71118491 20.22900166 32.38441829 29.67184478 40.34375 39.94140625 C41.80590255 41.75875151 43.31447115 43.39155326 45 45 C45.33 44.67 45.66 44.34 46 44 C48.75 43.5625 48.75 43.5625 52 44 C55.00915755 46.61665874 56.74562759 48.2032936 57.30859375 52.1796875 C57.3125 54.375 57.3125 54.375 57 58 C58.010625 57.979375 59.02125 57.95875 60.0625 57.9375 C63.74806481 58.48515421 65.16825282 59.9158112 67.4375 62.8125 C68.65005859 64.52418785 69.83585042 66.2550274 71 68 C71.65097656 68.95003906 72.30195313 69.90007812 72.97265625 70.87890625 C74.33228393 72.88822114 75.67462386 74.90933542 77 76.94140625 C78.32539409 78.96832729 79.67950037 80.97678178 81.0625 82.96484375 C83.72120247 86.87249314 85.77790014 90.06400773 86.875 94.6875 C84.8021202 102.53483069 77.10651888 108.06493576 71 113 C70.45085937 113.44859375 69.90171875 113.8971875 69.3359375 114.359375 C66.7278103 116.31212665 65.42198197 117.03669408 62.125 116.75 C61.073125 116.37875 61.073125 116.37875 60 116 C59.505 117.485 59.505 117.485 59 119 C60.22506898 119.65357278 61.45529516 120.29748233 62.6875 120.9375 C63.37199219 121.29714844 64.05648437 121.65679687 64.76171875 122.02734375 C68.67079155 123.72605078 70.91437393 124.36697219 75.05078125 122.96875 C76.12714844 122.4840625 77.20351563 121.999375 78.3125 121.5 C83.88995386 119.23238286 87.2169878 118.17942209 93 120 C95.42100568 121.87432698 95.87710048 123.28718277 96.390625 126.265625 C96.65890802 128.51073029 96.86018005 130.74359525 97 133 C97.81791016 132.7834375 97.81791016 132.7834375 98.65234375 132.5625 C104.0286777 131.23909472 109.47307742 129.97730173 115 131 C117.5 132.9375 117.5 132.9375 120 136 C126.74653339 143.75640949 133.59028727 149.11722054 144.08203125 150.3671875 C150.56310769 150.5169428 156.7218474 149.55564843 163 148 C162.67 149.65 162.34 151.3 162 153 C152.48056162 156.73604332 139.93886994 156.49151865 130.50390625 152.47265625 C124.44140702 148.90703658 118.89129917 143.8868372 115 138 C115 137.34 115 136.68 115 136 C113.741875 135.979375 112.48375 135.95875 111.1875 135.9375 C110.47980469 135.92589844 109.77210938 135.91429687 109.04296875 135.90234375 C106.79694539 135.91736783 106.79694539 135.91736783 104 137 C96.83122697 137.45516019 96.83122697 137.45516019 93.82421875 135.80859375 C91.52614763 133.53020632 91.24375711 131.98077479 90.75 128.8125 C90.60046875 127.91144531 90.4509375 127.01039063 90.296875 126.08203125 C90.19890625 125.39496094 90.1009375 124.70789063 90 124 C86.16672024 124.391151 83.19220247 124.90933846 79.6875 126.5625 C73.06609285 129.14372651 66.55361523 128.75941694 60 126 C58.69820967 128.60358067 58.60317308 130.9860442 58.25 133.875 C57.35289 139.63030572 57.35289 139.63030572 54.375 142.75 C53.199375 143.36875 53.199375 143.36875 52 144 C48.125 142.25 48.125 142.25 47 140 C44.67549669 118.64900662 44.67549669 118.64900662 47 114 C45.02 113.505 45.02 113.505 43 113 C43.01160156 113.74121094 43.02320313 114.48242188 43.03515625 115.24609375 C43.09227801 121.9130197 42.93632071 128.53178902 42.5625 135.1875 C42.52326416 135.92991943 42.48402832 136.67233887 42.44360352 137.43725586 C42.12236458 142.75527084 42.12236458 142.75527084 41 145 C41.61746094 144.96519531 42.23492187 144.93039063 42.87109375 144.89453125 C48.95500202 144.70006843 54.52029643 145.13024145 60 148 C60.66 148.99 61.32 149.98 62 151 C59.57881463 155.72131148 59.57881463 155.72131148 57.3125 156.8125 C51.3768266 157.29377082 46.52744377 157.44235887 41 155 C40.54429626 154.48545761 40.08859253 153.97091522 39.61907959 153.44078064 C37.46034184 151.51977096 36.25977685 151.6638254 33.40722656 151.76000977 C32.51749146 151.78741241 31.62775635 151.81481506 30.71105957 151.8430481 C26.62251963 152.07974674 22.55733254 152.41277106 18.484375 152.83984375 C17.62491272 152.92625626 16.76545044 153.01266876 15.87994385 153.10169983 C14.08150815 153.28347533 12.28331 153.46761578 10.48535156 153.65405273 C7.74336107 153.93818795 5.00069139 154.21482035 2.2578125 154.49023438 C0.49995575 154.66883581 -1.25785836 154.84785757 -3.015625 155.02734375 C-3.82823792 155.10967758 -4.64085083 155.19201141 -5.47808838 155.27684021 C-9.68297735 155.7148334 -13.83630942 156.25005213 -18 157 C-14.21547266 157.88046181 -10.71251991 158.12651952 -6.83056641 158.12939453 C-5.60383209 158.13254669 -4.37709778 158.13569885 -3.1131897 158.13894653 C-1.77598027 158.13715291 -0.43877117 158.13510102 0.8984375 158.1328125 C2.29350807 158.13348793 3.68857851 158.13445994 5.08364868 158.13571167 C8.01736565 158.13718615 10.9510522 158.13504795 13.88476562 158.13037109 C17.57240679 158.12476784 21.25997434 158.1279916 24.94761276 158.13380814 C54.04646153 158.39919236 54.04646153 158.39919236 83 156 C83 154.68 83 153.36 83 152 C78.94691667 150.89210465 74.92888626 150.66268733 70.75 150.4375 C70.00492187 150.39431641 69.25984375 150.35113281 68.4921875 150.30664062 C66.661651 150.20103275 64.83084824 150.10005799 63 150 C63.33 148.35 63.66 146.7 64 145 C71.69822123 144.69941869 80.3682461 144.48786229 87.3046875 148.25 C89 150 89 150 89.390625 152.48046875 C89.34421875 153.37378906 89.2978125 154.26710937 89.25 155.1875 C89.21390625 156.08855469 89.1778125 156.98960937 89.140625 157.91796875 C89.09421875 158.60503906 89.0478125 159.29210937 89 160 C76.26505023 163.23769909 63.13391179 163.22369425 50.0625 163.5625 C49.28297974 163.58334656 48.50345947 163.60419312 47.70031738 163.62567139 C27.63158755 164.15438621 7.56751827 164.33707323 -12.5 163.625 C-13.47936523 163.59422363 -14.45873047 163.56344727 -15.46777344 163.53173828 C-20.32570037 163.32393558 -24.44015534 162.86953631 -29 161 C-29.3125 158.75 -29.3125 158.75 -29 156 C-22.88594587 149.31275329 -12.8379028 149.555006 -4.38671875 148.9296875 C-2.74966728 148.80075607 -2.74966728 148.80075607 -1.07954407 148.66921997 C2.38401095 148.39812235 5.84821412 148.1365737 9.3125 147.875 C11.65955185 147.69200348 14.00655769 147.50841577 16.35351562 147.32421875 C20.6342626 146.99119523 24.91504164 146.65877174 29.1965332 146.33544922 C30.05398636 146.27042206 30.91143951 146.2053949 31.7948761 146.13839722 C33.52712226 146.02967859 35.26434551 146 37 146 C37.33 132.47 37.66 118.94 38 105 C36.02 104.01 36.02 104.01 34 103 C32.42672336 101.36128377 30.90911992 99.66808519 29.4375 97.9375 C25.57074027 93.29176469 25.57074027 93.29176469 19.87890625 91.82421875 C19.11449219 91.77910156 18.35007813 91.73398438 17.5625 91.6875 C14.26049863 91.35461531 13.20342882 91.15765733 10.5 89.0625 C7.99679092 85.62058751 8.07069557 84.21840542 8.5 80.0625 C8.52760715 72.96746138 5.15578994 69.53294039 0.44628906 64.55566406 C-1.10734341 62.88453879 -2.59157295 61.16736831 -4.0703125 59.4296875 C-9.91888926 52.55727623 -15.89613174 45.82554595 -22.13012695 39.29931641 C-26.41862871 34.74998219 -29.42503711 31.1593274 -29.5 24.75 C-29.27496461 17.77390297 -26.84298905 13.05710538 -22.1328125 7.9921875 C-16.04666615 2.33230821 -8.52931406 -2.30632652 0 0 Z M-22.8984375 16.921875 C-24.80100726 20.51112008 -25.13227178 22.89957483 -25 27 C-22.70653525 31.78636121 -18.96128875 35.08451093 -15.203125 38.73828125 C-11.99140128 42.03542315 -9.17177955 45.61576007 -6.29296875 49.203125 C-4.06269907 51.92352208 -1.74879432 54.52954407 0.625 57.125 C4.67410672 61.56549665 8.39179397 66.19679326 12 71 C17.69051744 66.7890171 23.26986387 62.45222738 28.81103516 58.04760742 C32.7884576 54.90092671 36.85365797 51.9209263 41 49 C40.34 48.67 39.68 48.34 39 48 C38.70222656 47.40316406 38.40445313 46.80632812 38.09765625 46.19140625 C36.84436339 43.68928065 35.33679791 41.99027653 33.4375 39.9375 C30.41175092 36.6189365 27.58127169 33.22253692 24.8125 29.6875 C19.47205654 23.11109899 13.36560355 17.55513963 7 12 C6.14664063 11.236875 5.29328125 10.47375 4.4140625 9.6875 C1.08617968 6.87072546 -1.21566817 5.18207703 -5.5 4.1875 C-12.96160291 5.91965782 -18.6193357 10.65860867 -22.8984375 16.921875 Z M47 49 C47.99 50.485 47.99 50.485 49 52 C49.66 52 50.32 52 51 52 C51.33 52.99 51.66 53.98 52 55 C52.33 54.34 52.66 53.68 53 53 C51.70532323 50.94009522 51.70532323 50.94009522 50 49 C49.01 49 48.02 49 47 49 Z M43 53 C37.38663508 56.43764208 32.26336559 60.31426081 27.25 64.5625 C26.43656128 65.25049683 26.43656128 65.25049683 25.60668945 65.95239258 C22.2488816 68.83102883 19.08997577 71.83563592 16 75 C20.455 79.95 20.455 79.95 25 85 C29.32763319 82.40342009 32.38598815 79.81819931 35.8125 76.25 C39.85913971 72.113532 43.95517233 68.14111242 48.37890625 64.40234375 C49.99776114 63.00193675 51.50518331 61.53116482 53 60 C52.01 60 51.02 60 50 60 C49.773125 59.401875 49.54625 58.80375 49.3125 58.1875 C47.66188867 55.43648112 45.8027919 54.47515363 43 53 Z M52.73828125 65.484375 C52.17689453 66.00773437 51.61550781 66.53109375 51.03710938 67.0703125 C50.46798828 67.62460938 49.89886719 68.17890625 49.3125 68.75 C48.73177734 69.28882813 48.15105469 69.82765625 47.55273438 70.3828125 C44.75901972 73.0311894 42.38407296 75.32104478 41 79 C41.9075 78.979375 42.815 78.95875 43.75 78.9375 C46.45498249 78.98951889 48.43478023 79.29177628 51 80 C51.63137453 82.41516081 52.2562436 84.83159619 52.875 87.25 C53.0613501 87.97348633 53.2477002 88.69697266 53.43969727 89.44238281 C54.55199806 93.86815887 55.35960685 98.21662458 55.9375 102.75 C56.52822081 106.59229911 56.79298421 107.75484972 59.375 110.8125 C62.39807706 112.18008248 62.98068711 112.10353365 66 111 C71.57938164 107.34916617 78.2018125 102.54462098 82 97 C82.44981558 92.84617979 81.5921759 90.80587708 79.18359375 87.453125 C78.58353516 86.6075 77.98347656 85.761875 77.36523438 84.890625 C76.41100586 83.58351563 76.41100586 83.58351563 75.4375 82.25 C74.82841797 81.3940625 74.21933594 80.538125 73.59179688 79.65625 C72.36378654 77.94093397 71.12337303 76.23442841 69.87060547 74.53710938 C68.60831298 72.82505723 67.36808327 71.09654743 66.14892578 69.35351562 C65.55450684 68.53044922 64.96008789 67.70738281 64.34765625 66.859375 C63.82308838 66.11655273 63.29852051 65.37373047 62.75805664 64.60839844 C61.08033438 62.77671117 61.08033438 62.77671117 58.49462891 62.60351562 C55.72824955 63.04319071 54.74888015 63.58684626 52.73828125 65.484375 Z M33.875 83.5 C32.50988281 84.75296875 32.50988281 84.75296875 31.1171875 86.03125 C30.06917969 87.00578125 30.06917969 87.00578125 29 88 C30.83690079 91.93011332 33.12957156 94.76156791 36 98 C36.33 98 36.66 98 37 98 C37.03738281 97.13117188 37.07476562 96.26234375 37.11328125 95.3671875 C37.76625659 83.92091388 37.76625659 83.92091388 41 79 C37.73303883 79 36.2079596 81.34649883 33.875 83.5 Z M13 80 C13.27540704 83.81813447 13.27540704 83.81813447 15 87 C16.66617115 87.04063832 18.33388095 87.042721 20 87 C19.34 86.67 18.68 86.34 18 86 C18 85.34 18 84.68 18 84 C17.34 84 16.68 84 16 84 C15.34 82.68 14.68 81.36 14 80 C13.67 80 13.34 80 13 80 Z M44 83 C40.80716849 87.26542334 40.62814303 90.80301341 41 95.9375 C41.01933594 96.62779297 41.03867188 97.31808594 41.05859375 98.02929688 C41.41147045 103.66997751 43.20681577 106.11563346 47 110 C48.98 108.68 50.96 107.36 53 106 C52.49071298 98.48801648 51.21695492 90.86283717 48 84 C45.9592113 83.03280826 45.9592113 83.03280826 44 83 Z M53 111 C52.34 111.66 51.68 112.32 51 113 C51.66 113 52.32 113 53 113 C53.33 113.66 53.66 114.32 54 115 C53.67 113.68 53.34 112.36 53 111 Z M51 119 C51 125.27 51 131.54 51 138 C51.66 138 52.32 138 53 138 C54.59412284 134.81175432 54.10174735 131.37103338 54.0625 127.875 C54.05798828 127.12089844 54.05347656 126.36679688 54.04882812 125.58984375 C54.03703499 123.72652873 54.01909942 121.86325445 54 120 C53.01 119.67 52.02 119.34 51 119 Z " fill="#FBFBFB" transform="translate(192,79)"/>
<path d="M0 0 C3.5625 0.1875 3.5625 0.1875 5.5625 2.1875 C6.27658334 4.17106483 6.94867742 6.17065437 7.5625 8.1875 C8.5525 5.5475 9.5425 2.9075 10.5625 0.1875 C12.04156892 0.16060784 13.52077483 0.14115379 15 0.125 C15.82371094 0.11339844 16.64742188 0.10179687 17.49609375 0.08984375 C19.5625 0.1875 19.5625 0.1875 20.5625 1.1875 C20.81630234 5.66081958 20.74772721 10.1453346 20.75 14.625 C20.76224609 15.89150391 20.77449219 17.15800781 20.78710938 18.46289062 C20.79000977 20.27370117 20.79000977 20.27370117 20.79296875 22.12109375 C20.79707764 23.23540771 20.80118652 24.34972168 20.80541992 25.49780273 C20.5625 28.1875 20.5625 28.1875 18.5625 30.1875 C16.22577016 29.8788753 13.89256911 29.54293427 11.5625 29.1875 C9.89024271 29.49154678 8.22169896 29.81878912 6.5625 30.1875 C5.5725 29.8575 4.5825 29.5275 3.5625 29.1875 C1.56140722 29.51420903 -0.43866131 29.84727214 -2.4375 30.1875 C-3.0975 29.8575 -3.7575 29.5275 -4.4375 29.1875 C-4.46215881 25.21819011 -4.48034023 21.24890966 -4.49243164 17.27954102 C-4.49747057 15.92829614 -4.50430177 14.57705674 -4.51293945 13.22583008 C-4.52502419 11.28729566 -4.53019828 9.348722 -4.53515625 7.41015625 C-4.54039307 6.24234619 -4.54562988 5.07453613 -4.55102539 3.87133789 C-4.38105825 -0.14683149 -4.13485225 0.2255374 0 0 Z " fill="#F7F7F8" transform="translate(425.4375,267.8125)"/>
<path d="M0 0 C1.13953125 -0.04898437 2.2790625 -0.09796875 3.453125 -0.1484375 C6.75 0.375 6.75 0.375 9.65234375 2.12890625 C12.88490147 7.13124417 12.28339939 11.87274844 12.0625 17.6875 C12.03994141 18.80962891 12.01738281 19.93175781 11.99414062 21.08789062 C11.93533776 23.85162536 11.85320401 26.61262554 11.75 29.375 C9.4239143 29.75563221 7.08944736 30.08769945 4.75 30.375 C2.72632462 28.35132462 3.31207767 24.36867397 3.12890625 21.625 C3.00386719 20.8825 2.87882812 20.14 2.75 19.375 C2.09 19.045 1.43 18.715 0.75 18.375 C0.75 22.005 0.75 25.635 0.75 29.375 C-1.5760857 29.75563221 -3.91055264 30.08769945 -6.25 30.375 C-8.08034055 28.54465945 -7.38042797 25.64288008 -7.3828125 23.1875 C-7.38410156 21.93195313 -7.38539063 20.67640625 -7.38671875 19.3828125 C-7.38462402 18.72571289 -7.3825293 18.06861328 -7.38037109 17.39160156 C-7.37502234 15.38338665 -7.38031691 13.37539541 -7.38671875 11.3671875 C-7.38542969 10.11164063 -7.38414062 8.85609375 -7.3828125 7.5625 C-7.38112061 5.82033203 -7.38112061 5.82033203 -7.37939453 4.04296875 C-7.13958631 -0.90160521 -4.38457549 0.12780153 0 0 Z M0.75 7.375 C0.75 8.695 0.75 10.015 0.75 11.375 C1.74 11.045 2.73 10.715 3.75 10.375 C3.75 9.385 3.75 8.395 3.75 7.375 C2.76 7.375 1.77 7.375 0.75 7.375 Z " fill="#FAFAFB" transform="translate(330.25,267.625)"/>
<path d="M0 0 C2.24893954 -0.10823773 4.49937575 -0.18569645 6.75 -0.25 C8.00296875 -0.29640625 9.2559375 -0.3428125 10.546875 -0.390625 C14 0 14 0 16.40234375 1.83203125 C18.44707776 4.60667031 18.79035698 6.57583066 19 10 C18.68911632 11.67099977 18.35919668 13.33871537 18 15 C18.33 15.99 18.66 16.98 19 18 C19.09338218 19.87313664 19.12994843 21.74954362 19.125 23.625 C19.12886719 25.09839844 19.12886719 25.09839844 19.1328125 26.6015625 C19 29 19 29 18 30 C15 30.125 15 30.125 12 30 C9.97632462 27.97632462 10.56207767 23.99367397 10.37890625 21.25 C10.25386719 20.5075 10.12882812 19.765 10 19 C9.34 18.67 8.68 18.34 8 18 C8 21.63 8 25.26 8 29 C5.6739143 29.38063221 3.33944736 29.71269945 1 30 C0 29 0 29 -0.11352539 26.22436523 C-0.10828857 25.01466064 -0.10305176 23.80495605 -0.09765625 22.55859375 C-0.09443359 21.25341797 -0.09121094 19.94824219 -0.08789062 18.60351562 C-0.07953401 17.2148431 -0.07106905 15.82617123 -0.0625 14.4375 C-0.05748666 13.04492344 -0.05292347 11.65234519 -0.04882812 10.25976562 C-0.03699434 6.8398013 -0.0205088 3.41992156 0 0 Z M8 7 C8 8.32 8 9.64 8 11 C8.99 10.67 9.98 10.34 11 10 C11 9.01 11 8.02 11 7 C10.01 7 9.02 7 8 7 Z " fill="#FBFBFB" transform="translate(41,268)"/>
<path d="M0 0 C2.31 0 4.62 0 7 0 C7 3.63 7 7.26 7 11 C8.32 11 9.64 11 11 11 C11 7.37 11 3.74 11 0 C13.31 0 15.62 0 18 0 C18.02465746 4.1117256 18.04283959 8.22342278 18.05493164 12.33520508 C18.0599708 13.73495228 18.06680216 15.1346942 18.07543945 16.53442383 C18.0875232 18.54245777 18.09269807 20.55052957 18.09765625 22.55859375 C18.10551147 24.37315063 18.10551147 24.37315063 18.11352539 26.22436523 C18 29 18 29 17 30 C14.5 30.125 14.5 30.125 12 30 C11 29 11 29 10.90234375 26.49609375 C10.91394531 25.48675781 10.92554688 24.47742188 10.9375 23.4375 C10.94652344 22.42558594 10.95554687 21.41367187 10.96484375 20.37109375 C10.97644531 19.58863281 10.98804688 18.80617188 11 18 C9.68 18 8.36 18 7 18 C7.01160156 18.78246094 7.02320313 19.56492187 7.03515625 20.37109375 C7.04417969 21.38300781 7.05320312 22.39492188 7.0625 23.4375 C7.07410156 24.44683594 7.08570313 25.45617187 7.09765625 26.49609375 C7 29 7 29 6 30 C3.5 30.125 3.5 30.125 1 30 C0 29 0 29 -0.11352539 26.22436523 C-0.10828857 25.01466064 -0.10305176 23.80495605 -0.09765625 22.55859375 C-0.09443359 21.25341797 -0.09121094 19.94824219 -0.08789062 18.60351562 C-0.07953401 17.2148431 -0.07106905 15.82617123 -0.0625 14.4375 C-0.05748666 13.04492344 -0.05292347 11.65234519 -0.04882812 10.25976562 C-0.03699434 6.8398013 -0.0205088 3.41992156 0 0 Z " fill="#F7F8F7" transform="translate(357,268)"/>
<path d="M0 0 C3.03215675 2.19831364 3.81654398 3.44963194 5 7 C5.14821529 9.63937224 5.23097341 12.23506123 5.25 14.875 C5.270625 15.58269531 5.29125 16.29039062 5.3125 17.01953125 C5.34633742 21.56220455 4.73932783 24.36139788 2 28 C0.27415266 29.72584734 -1.96209367 29.2533507 -4.3125 29.3125 C-5.27800781 29.34988281 -6.24351563 29.38726562 -7.23828125 29.42578125 C-10 29 -10 29 -12.3203125 27.63671875 C-14.9807886 23.46038999 -14.61840528 19.34731651 -14.5625 14.5 C-14.59827148 13.07494141 -14.59827148 13.07494141 -14.63476562 11.62109375 C-14.62021391 4.7235829 -14.62021391 4.7235829 -11.75 1.375 C-7.69939301 -0.65030349 -4.42613357 -0.83558783 0 0 Z M-6 7 C-7.36538938 9.73077876 -7.13231826 11.95560367 -7.125 15 C-7.12757812 16.0725 -7.13015625 17.145 -7.1328125 18.25 C-7.1872341 20.96182052 -7.1872341 20.96182052 -6 23 C-5.01 22.67 -4.02 22.34 -3 22 C-3 17.05 -3 12.1 -3 7 C-3.99 7 -4.98 7 -6 7 Z " fill="#FBFBFB" transform="translate(88,268)"/>
<path d="M0 0 C3.61986532 0.8116877 5.12897034 2.4703572 7.16015625 5.484375 C7.47265625 8.796875 7.47265625 8.796875 7.16015625 11.484375 C5.18015625 12.474375 5.18015625 12.474375 3.16015625 13.484375 C4.18109375 14.7528125 4.18109375 14.7528125 5.22265625 16.046875 C7.16015625 19.484375 7.16015625 19.484375 7.09765625 23.171875 C6.1548876 26.50299089 5.84373608 27.48934526 3.16015625 29.484375 C-0.55938337 30.16581737 -4.11007427 30.08180814 -7.83984375 29.484375 C-10.52734375 27.296875 -10.52734375 27.296875 -11.83984375 24.484375 C-12.08984375 21.671875 -12.08984375 21.671875 -11.83984375 19.484375 C-10.18984375 18.824375 -8.53984375 18.164375 -6.83984375 17.484375 C-7.66484375 16.618125 -8.48984375 15.751875 -9.33984375 14.859375 C-11.27064473 12.51483095 -11.83659958 11.50027141 -12.46484375 8.421875 C-11.00124473 1.54295962 -6.49390391 -0.39028471 0 0 Z M-3.83984375 7.484375 C-3.17984375 8.804375 -2.51984375 10.124375 -1.83984375 11.484375 C-1.50984375 10.164375 -1.17984375 8.844375 -0.83984375 7.484375 C-1.82984375 7.484375 -2.81984375 7.484375 -3.83984375 7.484375 Z M-3.83984375 19.484375 C-3.83984375 20.804375 -3.83984375 22.124375 -3.83984375 23.484375 C-2.84984375 23.484375 -1.85984375 23.484375 -0.83984375 23.484375 C-1.49984375 22.164375 -2.15984375 20.844375 -2.83984375 19.484375 C-3.16984375 19.484375 -3.49984375 19.484375 -3.83984375 19.484375 Z " fill="#F9F9FA" transform="translate(180.83984375,267.515625)"/>
<path d="M0 0 C2.46616747 0.62767078 3.5510231 1.33578982 5.2890625 3.17578125 C7.1640625 6.55078125 7.1640625 6.55078125 6.9765625 9.92578125 C6.7084375 10.79203125 6.4403125 11.65828125 6.1640625 12.55078125 C5.1740625 12.88078125 4.1840625 13.21078125 3.1640625 13.55078125 C4.185 14.81921875 4.185 14.81921875 5.2265625 16.11328125 C7.1640625 19.55078125 7.1640625 19.55078125 7.2265625 23.17578125 C5.93864218 27.26682227 4.91920884 28.50994085 1.1640625 30.55078125 C-2.94071283 31.13717773 -5.05918604 30.97292878 -8.7109375 28.98828125 C-11.4130416 25.88880889 -11.60277265 23.59230531 -11.8359375 19.55078125 C-10.1859375 18.89078125 -8.5359375 18.23078125 -6.8359375 17.55078125 C-7.6609375 16.68453125 -8.4859375 15.81828125 -9.3359375 14.92578125 C-11.26673848 12.5812372 -11.83269333 11.56667766 -12.4609375 8.48828125 C-11.00776554 1.65837306 -6.48095347 -0.37932002 0 0 Z M-3.8359375 7.55078125 C-3.8359375 8.54078125 -3.8359375 9.53078125 -3.8359375 10.55078125 C-2.8459375 10.55078125 -1.8559375 10.55078125 -0.8359375 10.55078125 C-0.8359375 9.56078125 -0.8359375 8.57078125 -0.8359375 7.55078125 C-1.8259375 7.55078125 -2.8159375 7.55078125 -3.8359375 7.55078125 Z M-3.8359375 19.55078125 C-3.5059375 20.87078125 -3.1759375 22.19078125 -2.8359375 23.55078125 C-2.1759375 23.55078125 -1.5159375 23.55078125 -0.8359375 23.55078125 C-1.4959375 22.23078125 -2.1559375 20.91078125 -2.8359375 19.55078125 C-3.1659375 19.55078125 -3.4959375 19.55078125 -3.8359375 19.55078125 Z " fill="#F9F9FA" transform="translate(212.8359375,267.44921875)"/>
<path d="M0 0 C2.08218362 -0.10832169 4.16599129 -0.18573541 6.25 -0.25 C7.99023438 -0.31960938 7.99023438 -0.31960938 9.765625 -0.390625 C13 0 13 0 15.39746094 1.64941406 C17.4149123 4.60858862 17.46329982 6.29830882 17.390625 9.859375 C17.37128906 11.53193359 17.37128906 11.53193359 17.3515625 13.23828125 C17.31804687 14.39714844 17.28453125 15.55601562 17.25 16.75 C17.23195313 17.92433594 17.21390625 19.09867187 17.1953125 20.30859375 C17.1481912 23.2065534 17.08241305 26.10286418 17 29 C12.25 30.125 12.25 30.125 10 29 C9.5859375 26.71484375 9.5859375 26.71484375 9.375 23.9375 C9.30023438 23.01839844 9.22546875 22.09929687 9.1484375 21.15234375 C9.09945313 20.44207031 9.05046875 19.73179687 9 19 C8.01 18.67 7.02 18.34 6 18 C6.01160156 18.78246094 6.02320313 19.56492187 6.03515625 20.37109375 C6.04417969 21.38300781 6.05320312 22.39492188 6.0625 23.4375 C6.07410156 24.44683594 6.08570313 25.45617187 6.09765625 26.49609375 C6 29 6 29 5 30 C3.33382885 30.04063832 1.66611905 30.042721 0 30 C-1.11984119 26.64047644 -1.028066 24.33089543 -0.87890625 20.80078125 C-0.83056641 19.59228516 -0.78222656 18.38378906 -0.73242188 17.13867188 C-0.67634766 15.87603516 -0.62027344 14.61339844 -0.5625 13.3125 C-0.51029297 12.03826172 -0.45808594 10.76402344 -0.40429688 9.45117188 C-0.27449555 6.30053961 -0.1395244 3.15021423 0 0 Z M6 7 C6 8.32 6 9.64 6 11 C7.32 10.67 8.64 10.34 10 10 C10 9.01 10 8.02 10 7 C8.68 7 7.36 7 6 7 Z " fill="#FAFAFA" transform="translate(268,268)"/>
<path d="M0 0 C0.639375 -0.01289063 1.27875 -0.02578125 1.9375 -0.0390625 C5.42532848 1.08391258 6.82726687 2.68716768 9 5.625 C9.70102502 8.99882198 9.65410247 12.25364541 9.5625 15.6875 C9.57345703 16.58533203 9.58441406 17.48316406 9.59570312 18.40820312 C9.52370673 24.86387955 9.52370673 24.86387955 7.2421875 28.1796875 C4.8909402 29.69529987 3.32800755 30.34720358 0.5625 30.6875 C-0.17871094 30.80222656 -0.91992188 30.91695313 -1.68359375 31.03515625 C-5.50011552 30.3593809 -6.7578854 28.72976528 -9 25.625 C-9.72225573 22.2719083 -9.69931177 19.0433416 -9.625 15.625 C-9.64433594 14.73554688 -9.66367188 13.84609375 -9.68359375 12.9296875 C-9.64987389 8.41122587 -9.46614092 6.25341523 -6.7109375 2.5390625 C-3.02832227 -0.06105488 -3.02832227 -0.06105488 0 0 Z M-1 7.625 C-1 12.905 -1 18.185 -1 23.625 C-0.01 23.625 0.98 23.625 2 23.625 C2 18.345 2 13.065 2 7.625 C1.01 7.625 0.02 7.625 -1 7.625 Z " fill="#FBFBFB" transform="translate(243,267.375)"/>
<path d="M0 0 C2.08984375 0.421875 2.08984375 0.421875 4.58984375 2.109375 C6.25241452 4.67250493 6.93338739 6.37097602 7.08984375 9.421875 C6.09984375 10.906875 6.09984375 10.906875 5.08984375 12.421875 C2.46484375 12.609375 2.46484375 12.609375 0.08984375 12.421875 C1.07984375 12.751875 2.06984375 13.081875 3.08984375 13.421875 C7.08984375 19.19965278 7.08984375 19.19965278 7.08984375 23.109375 C5.79514655 26.10336229 4.76071352 27.50432747 2.08984375 29.421875 C-1.82157587 30.62475928 -4.92413978 30.71558203 -8.84765625 29.546875 C-11.98851731 26.31083633 -11.80945688 22.78856578 -11.91015625 18.421875 C-9.93015625 18.091875 -7.95015625 17.761875 -5.91015625 17.421875 C-6.71453125 16.968125 -7.51890625 16.514375 -8.34765625 16.046875 C-10.91015625 14.421875 -10.91015625 14.421875 -11.91015625 12.421875 C-12.39168637 8.1683589 -12.3573238 6.0998387 -9.97265625 2.484375 C-6.36869487 0.05721733 -4.25892306 -0.2551102 0 0 Z M-3.91015625 7.421875 C-3.91015625 8.411875 -3.91015625 9.401875 -3.91015625 10.421875 C-2.92015625 10.751875 -1.93015625 11.081875 -0.91015625 11.421875 C-0.91015625 10.101875 -0.91015625 8.781875 -0.91015625 7.421875 C-1.90015625 7.421875 -2.89015625 7.421875 -3.91015625 7.421875 Z M-3.91015625 18.421875 C-3.91015625 20.071875 -3.91015625 21.721875 -3.91015625 23.421875 C-2.92015625 23.421875 -1.93015625 23.421875 -0.91015625 23.421875 C-1.57015625 21.771875 -2.23015625 20.121875 -2.91015625 18.421875 C-3.24015625 18.421875 -3.57015625 18.421875 -3.91015625 18.421875 Z " fill="#F9F9F9" transform="translate(502.91015625,267.578125)"/>
<path d="M0 0 C4.95 0 9.9 0 15 0 C15.33 1.65 15.66 3.3 16 5 C12.77208445 7.1519437 11.71599191 7.20086443 8 7 C8 8.32 8 9.64 8 11 C9.98 11 11.96 11 14 11 C14.38133299 12.9914056 14.71325582 14.99279077 15 17 C14 18 14 18 10.9375 18.0625 C9.968125 18.041875 8.99875 18.02125 8 18 C8 19.65 8 21.3 8 23 C9.7015625 22.9690625 9.7015625 22.9690625 11.4375 22.9375 C15 23 15 23 16 24 C16.04063832 25.66617115 16.042721 27.33388095 16 29 C13.13366205 30.43316898 10.62764499 30.13200361 7.4375 30.125 C5.67212891 30.12886719 5.67212891 30.12886719 3.87109375 30.1328125 C1 30 1 30 0 29 C-0.08775605 26.85441173 -0.10695219 24.70595579 -0.09765625 22.55859375 C-0.09443359 21.25341797 -0.09121094 19.94824219 -0.08789062 18.60351562 C-0.07953401 17.2148431 -0.07106905 15.82617123 -0.0625 14.4375 C-0.05748666 13.04492344 -0.05292347 11.65234519 -0.04882812 10.25976562 C-0.03699442 6.83982549 -0.01905831 3.4199075 0 0 Z " fill="#F8F8F9" transform="translate(461,268)"/>
<path d="M0 0 C5.28 0 10.56 0 16 0 C16 1.65 16 3.3 16 5 C12.91190305 6.76462683 11.76687864 7 8 7 C8 8.32 8 9.64 8 11 C9.423125 10.938125 9.423125 10.938125 10.875 10.875 C14 11 14 11 16 13 C15.625 15.625 15.625 15.625 15 18 C12.69 18 10.38 18 8 18 C8 19.65 8 21.3 8 23 C9.7015625 22.9690625 9.7015625 22.9690625 11.4375 22.9375 C15 23 15 23 16 24 C16.04063832 25.66617115 16.042721 27.33388095 16 29 C12.74530985 30.08489672 10.29456791 30.13323992 6.875 30.125 C5.79992187 30.12757813 4.72484375 30.13015625 3.6171875 30.1328125 C1 30 1 30 0 29 C-0.08775605 26.85441173 -0.10695219 24.70595579 -0.09765625 22.55859375 C-0.09443359 21.25341797 -0.09121094 19.94824219 -0.08789062 18.60351562 C-0.07953401 17.2148431 -0.07106905 15.82617123 -0.0625 14.4375 C-0.05748666 13.04492344 -0.05292347 11.65234519 -0.04882812 10.25976562 C-0.03699442 6.83982549 -0.01905831 3.4199075 0 0 Z " fill="#FBFBFB" transform="translate(139,268)"/>
<path d="M0 0 C4.2576575 0.0405009 5.82334628 0.09056419 9.4375 2.5 C11.48489214 5.74758753 12.25 7.53238383 12.25 11.375 C10.8000457 15.72486291 10.10115325 17.8075645 6.25 20.375 C3.5625 20.5 3.5625 20.5 1.25 20.375 C1.26160156 21.01308594 1.27320313 21.65117187 1.28515625 22.30859375 C1.29417969 23.13488281 1.30320312 23.96117187 1.3125 24.8125 C1.32410156 25.63621094 1.33570313 26.45992188 1.34765625 27.30859375 C1.25 29.375 1.25 29.375 0.25 30.375 C-1.74958364 30.41580783 -3.75045254 30.41754356 -5.75 30.375 C-6.82268883 27.1569335 -6.87923759 24.81206086 -6.8828125 21.4296875 C-6.88410156 20.27082031 -6.88539063 19.11195313 -6.88671875 17.91796875 C-6.88285156 16.70753906 -6.87898437 15.49710937 -6.875 14.25 C-6.87886719 13.03183594 -6.88273438 11.81367188 -6.88671875 10.55859375 C-6.88542969 9.40230469 -6.88414062 8.24601562 -6.8828125 7.0546875 C-6.88168457 5.98976074 -6.88055664 4.92483398 -6.87939453 3.82763672 C-6.63771553 -0.75332037 -4.04860831 0.12837051 0 0 Z M1.25 7.375 C1.25 9.355 1.25 11.335 1.25 13.375 C1.91 13.375 2.57 13.375 3.25 13.375 C3.58 11.725 3.91 10.075 4.25 8.375 C3.26 8.045 2.27 7.715 1.25 7.375 Z " fill="#F9F9F9" transform="translate(14.75,267.625)"/>
<path d="M0 0 C5.28 0 10.56 0 16 0 C16 1.98 16 3.96 16 6 C13.69 6.33 11.38 6.66 9 7 C8.67 8.32 8.34 9.64 8 11 C9.423125 10.938125 9.423125 10.938125 10.875 10.875 C14 11 14 11 16 13 C15.625 15.625 15.625 15.625 15 18 C12.69 18 10.38 18 8 18 C8 21.63 8 25.26 8 29 C5.6739143 29.38063221 3.33944736 29.71269945 1 30 C0 29 0 29 -0.11352539 26.22436523 C-0.10828857 25.01466064 -0.10305176 23.80495605 -0.09765625 22.55859375 C-0.09443359 21.25341797 -0.09121094 19.94824219 -0.08789062 18.60351562 C-0.07953401 17.2148431 -0.07106905 15.82617123 -0.0625 14.4375 C-0.05748666 13.04492344 -0.05292347 11.65234519 -0.04882812 10.25976562 C-0.03699442 6.83982549 -0.01905831 3.4199075 0 0 Z " fill="#FCFCFC" transform="translate(107,268)"/>
<path d="M0 0 C2.64 0 5.28 0 8 0 C8 0.66 8 1.32 8 2 C8.66 2 9.32 2 10 2 C10 1.34 10 0.68 10 0 C12.64 0 15.28 0 18 0 C17.51469146 3.68834488 16.67506411 7.04877172 15.5 10.5625 C13.60475131 16.6180507 13.28672884 22.69196555 13 29 C7.25 30.125 7.25 30.125 5 29 C4.7265625 26.48046875 4.7265625 26.48046875 4.625 23.1875 C4.27368274 17.16870622 2.98066852 12.17349716 0.83984375 6.55859375 C0 4 0 4 0 0 Z " fill="#F8F8F9" transform="translate(389,268)"/>
<path d="M0 0 C0.66 0 1.32 0 2 0 C2 9.24 2 18.48 2 28 C2.66 28 3.32 28 4 28 C4 23.38 4 18.76 4 14 C5.32 14.33 6.64 14.66 8 15 C9.08203125 17.1796875 9.08203125 17.1796875 9.8125 19.875 C10.06644531 20.75929688 10.32039063 21.64359375 10.58203125 22.5546875 C11 25 11 25 10 28 C6.00243231 30.28432439 3.40038121 29.85207935 -1 29 C-1.02465881 25.03069011 -1.04284023 21.06140966 -1.05493164 17.09204102 C-1.05997057 15.74079614 -1.06680177 14.38955674 -1.07543945 13.03833008 C-1.08752419 11.09979566 -1.09269828 9.161222 -1.09765625 7.22265625 C-1.10289307 6.05484619 -1.10812988 4.88703613 -1.11352539 3.68383789 C-1 1 -1 1 0 0 Z " fill="#DEDEDF" transform="translate(422,268)"/>
<path d="M0 0 C1.32 0 2.64 0 4 0 C4.12375 0.61875 4.2475 1.2375 4.375 1.875 C4.87197356 4.19120832 4.87197356 4.19120832 7 6 C7.5625 7.875 7.5625 7.875 8 10 C8.185625 10.7425 8.37125 11.485 8.5625 12.25 C8.7790625 13.11625 8.7790625 13.11625 9 14 C6.69 13.34 4.38 12.68 2 12 C2 16.62 2 21.24 2 26 C1.34 26 0.68 26 0 26 C0 17.42 0 8.84 0 0 Z " fill="#FBFBFC" transform="translate(424,270)"/>
<path d="M0 0 C3 1 3 1 4.38671875 3.66796875 C7.64109215 12.47334542 8.64818459 19.52210086 8 29 C7.01 29 6.02 29 5 29 C4.96132813 27.80117188 4.96132813 27.80117188 4.921875 26.578125 C4.55028888 19.38286656 3.40820207 13.2948218 0.83984375 6.55859375 C0 4 0 4 0 0 Z " fill="#E9E9E9" transform="translate(389,268)"/>
<path d="M0 0 C0.99 0 1.98 0 3 0 C3.33 5.61 3.66 11.22 4 17 C1.69 17 -0.62 17 -3 17 C-4.3582089 13.26039816 -3.62928896 10.59470752 -2.625 6.8125 C-2.34914063 5.74644531 -2.07328125 4.68039062 -1.7890625 3.58203125 C-1 1 -1 1 0 0 Z " fill="#F0F0F2" transform="translate(438,280)"/>
<path d="M0 0 C1.32 0.33 2.64 0.66 4 1 C4 9.91 4 18.82 4 28 C3.01 28.33 2.02 28.66 1 29 C1.00523682 28.22809326 1.01047363 27.45618652 1.01586914 26.66088867 C1.03663242 23.16976737 1.04965811 19.67865905 1.0625 16.1875 C1.07087891 14.97255859 1.07925781 13.75761719 1.08789062 12.50585938 C1.09111328 11.34248047 1.09433594 10.17910156 1.09765625 8.98046875 C1.10289307 7.90692139 1.10812988 6.83337402 1.11352539 5.72729492 C1.12194588 2.90500635 1.12194588 2.90500635 0 0 Z " fill="#EEEDEF" transform="translate(442,268)"/>
<path d="M0 0 C1.32 0.33 2.64 0.66 4 1 C5.08203125 3.1796875 5.08203125 3.1796875 5.8125 5.875 C6.06644531 6.75929688 6.32039063 7.64359375 6.58203125 8.5546875 C7 11 7 11 6 14 C2.4375 15.1875 2.4375 15.1875 -1 16 C-1.33 15.34 -1.66 14.68 -2 14 C-1.34 14 -0.68 14 0 14 C0 9.38 0 4.76 0 0 Z " fill="#EAE9EC" transform="translate(426,282)"/>
<path d="M0 0 C0.99 0 1.98 0 3 0 C4.04616643 3.1384993 4.04169366 5.05038303 3.87890625 8.32421875 C3.83056641 9.35224609 3.78222656 10.38027344 3.73242188 11.43945312 C3.67634766 12.51130859 3.62027344 13.58316406 3.5625 14.6875 C3.51029297 15.77095703 3.45808594 16.85441406 3.40429688 17.97070312 C3.27458784 20.64742591 3.13962067 23.32377888 3 26 C2.01 26 1.02 26 0 26 C0 17.42 0 8.84 0 0 Z " fill="#F4F4F4" transform="translate(107,268)"/>
<path d="M0 0 C3 2 3 2 4 5 C4.09627338 7.69848628 4.13931086 10.36490376 4.125 13.0625 C4.12886719 13.79533203 4.13273437 14.52816406 4.13671875 15.28320312 C4.12668491 20.74663018 4.12668491 20.74663018 3 23 C2.34 23 1.68 23 1 23 C0.83159521 19.91675903 0.66558138 16.83339379 0.5 13.75 C0.45230469 12.87730469 0.40460938 12.00460937 0.35546875 11.10546875 C0.31035156 10.26113281 0.26523438 9.41679687 0.21875 8.546875 C0.17685547 7.77182617 0.13496094 6.99677734 0.09179688 6.19824219 C0.00558463 4.13373418 0 2.0663073 0 0 Z M-1 23 C1 24 1 24 1 24 Z " fill="#E3E3E3" transform="translate(89,270)"/>
<path d="M0 0 C0.99 0.33 1.98 0.66 3 1 C3 6.61 3 12.22 3 18 C2.01 17.67 1.02 17.34 0 17 C-0.19386492 14.35448944 -0.38038267 11.70882217 -0.5625 9.0625 C-0.61857422 8.30775391 -0.67464844 7.55300781 -0.73242188 6.77539062 C-0.86176157 4.85254042 -0.93516912 2.92610452 -1 1 C-0.67 0.67 -0.34 0.34 0 0 Z " fill="#F1F0F5" transform="translate(85,272)"/>
<path d="M0 0 C-0.33 0.66 -0.66 1.32 -1 2 C-3.71446979 2.31241455 -6.33909361 2.51336592 -9.0625 2.625 C-9.82111328 2.66367188 -10.57972656 2.70234375 -11.36132812 2.7421875 C-13.24047195 2.83673562 -15.12020336 2.91946756 -17 3 C-17 2.67 -17 2.34 -17 2 C-19.64 1.67 -22.28 1.34 -25 1 C-25 0.67 -25 0.34 -25 0 C-16.56758584 -1.35520942 -8.46334215 -0.67499048 0 0 Z " fill="#F3F4F4" transform="translate(251,239)"/>
<path d="M0 0 C1.9375 0.375 1.9375 0.375 4 1 C5.49297212 3.98594424 5.11755228 6.70853624 5 10 C4.67 10.66 4.34 11.32 4 12 C3.34 12 2.68 12 2 12 C2.33 12.99 2.66 13.98 3 15 C2.01 14.67 1.02 14.34 0 14 C0.08378906 13.40832031 0.16757812 12.81664062 0.25390625 12.20703125 C0.80889424 7.90060543 1.23226652 4.24447356 0 0 Z " fill="#F1F1F1" transform="translate(337,270)"/>
<path d="M0 0 C2 2 2 2 2.22705078 4.06298828 C2.21657715 4.89040527 2.20610352 5.71782227 2.1953125 6.5703125 C2.18886719 7.46621094 2.18242187 8.36210937 2.17578125 9.28515625 C2.15902344 10.22230469 2.14226562 11.15945313 2.125 12.125 C2.11597656 13.06988281 2.10695312 14.01476562 2.09765625 14.98828125 C2.07404522 17.32577292 2.04111516 19.66276123 2 22 C1.01 22 0.02 22 -1 22 C-0.814375 20.7625 -0.62875 19.525 -0.4375 18.25 C0.14851363 13.20867728 -0.28497171 8.43525464 -0.84375 3.40625 C-0.8953125 2.6121875 -0.946875 1.818125 -1 1 C-0.67 0.67 -0.34 0.34 0 0 Z " fill="#F0F0F1" transform="translate(250,271)"/>
<path d="M0 0 C3 2 3 2 3.8125 4.75 C4.01968854 8.34126801 3.33985176 10.68977801 2 14 C1.01 14 0.02 14 -1 14 C-0.91621094 13.39671875 -0.83242188 12.7934375 -0.74609375 12.171875 C-0.64425781 11.37265625 -0.54242188 10.5734375 -0.4375 9.75 C-0.33308594 8.96109375 -0.22867188 8.1721875 -0.12109375 7.359375 C0.00033688 4.9934363 -0.40261528 3.26905791 -1 1 C-0.67 0.67 -0.34 0.34 0 0 Z " fill="#F3F3F3" transform="translate(56,270)"/>
<path d="M0 0 C0.99 0 1.98 0 3 0 C2.40164077 4.18851464 1.68271138 8.10319471 0 12 C-2.07421875 13.171875 -2.07421875 13.171875 -4 14 C-3.52372025 12.04096255 -3.04388577 10.08278903 -2.5625 8.125 C-2.29566406 7.03445313 -2.02882813 5.94390625 -1.75390625 4.8203125 C-1 2 -1 2 0 0 Z " fill="#F3F3F4" transform="translate(404,268)"/>
<path d="M0 0 C0.66 0.66 1.32 1.32 2 2 C1.625 5.125 1.625 5.125 1 8 C-1.31 7.67 -3.62 7.34 -6 7 C-5.67 5.02 -5.34 3.04 -5 1 C-4.34 2.32 -3.68 3.64 -3 5 C-2.34 5 -1.68 5 -1 5 C-0.67 3.35 -0.34 1.7 0 0 Z " fill="#F1F1F3" transform="translate(218,272)"/>
<path d="M0 0 C1.485 0.99 1.485 0.99 3 2 C3.29296875 4.6015625 3.29296875 4.6015625 3.1875 7.625 C3.16042969 8.62789063 3.13335937 9.63078125 3.10546875 10.6640625 C3.07066406 11.43492187 3.03585937 12.20578125 3 13 C2.01 13 1.02 13 0 13 C0 8.71 0 4.42 0 0 Z " fill="#F1F1F1" transform="translate(394,284)"/>
<path d="M0 0 C0.99 0.33 1.98 0.66 3 1 C3.08131463 2.43655854 3.13933559 3.8744483 3.1875 5.3125 C3.23970703 6.51326172 3.23970703 6.51326172 3.29296875 7.73828125 C3 10 3 10 0 13 C0 8.71 0 4.42 0 0 Z " fill="#F5F5F6" transform="translate(399,283)"/>
<path d="M0 0 C1.32 0.33 2.64 0.66 4 1 C4.63394697 5.04141194 5.12404452 8.9065307 5 13 C4.01 12.67 3.02 12.34 2 12 C2.03480469 11.07767578 2.03480469 11.07767578 2.0703125 10.13671875 C2.08835938 9.32847656 2.10640625 8.52023437 2.125 7.6875 C2.15980469 6.48673828 2.15980469 6.48673828 2.1953125 5.26171875 C2.15817322 2.71611424 2.15817322 2.71611424 0 0 Z " fill="#F3F4F6" transform="translate(243,272)"/>
<path d="M0 0 C0.99 0 1.98 0 3 0 C3 3.96 3 7.92 3 12 C2.01 11.34 1.02 10.68 0 10 C-0.29296875 7.6171875 -0.29296875 7.6171875 -0.1875 4.875 C-0.16042969 3.96492188 -0.13335937 3.05484375 -0.10546875 2.1171875 C-0.07066406 1.41851562 -0.03585938 0.71984375 0 0 Z " fill="#F4F4F4" transform="translate(139,268)"/>
<path d="M0 0 C0.99 0 1.98 0 3 0 C3 5.28 3 10.56 3 16 C2.67 16 2.34 16 2 16 C2 12.37 2 8.74 2 5 C1.01 5 0.02 5 -1 5 C-0.67 3.35 -0.34 1.7 0 0 Z " fill="#E7E7E7" transform="translate(438,280)"/>
<path d="M0 0 C2.31 0 4.62 0 7 0 C5 3 5 3 4 4 C3.31731862 5.32520503 2.6492959 6.65812182 2 8 C0 6 0 6 -0.125 2.875 C-0.08375 1.92625 -0.0425 0.9775 0 0 Z " fill="#F4F4F4" transform="translate(491,286)"/>
<path d="M0 0 C1.485 0.99 1.485 0.99 3 2 C3.6875 5.625 3.6875 5.625 4 9 C3.01 9.66 2.02 10.32 1 11 C0.4254048 7.26513121 0 3.78706732 0 0 Z " fill="#E9E9E8" transform="translate(89,270)"/>
<path d="M0 0 C0.66 0.33 1.32 0.66 2 1 C2 3.64 2 6.28 2 9 C1.01 9.33 0.02 9.66 -1 10 C-1.02689216 8.52093108 -1.04634621 7.04172517 -1.0625 5.5625 C-1.07410156 4.73878906 -1.08570313 3.91507812 -1.09765625 3.06640625 C-1 1 -1 1 0 0 Z " fill="#F1F1F1" transform="translate(340,286)"/>
<path d="M0 0 C0.66 0 1.32 0 2 0 C2 2.97 2 5.94 2 9 C1.01 9 0.02 9 -1 9 C-1.09765625 2.84765625 -1.09765625 2.84765625 -1 1 C-0.67 0.67 -0.34 0.34 0 0 Z " fill="#E8E8E9" transform="translate(58,287)"/>
<path d="M0 0 C0.99 0.33 1.98 0.66 3 1 C3 2.98 3 4.96 3 7 C1.35 7 -0.3 7 -2 7 C-2 6.34 -2 5.68 -2 5 C-1.34 5 -0.68 5 0 5 C-0.2784375 4.0409375 -0.2784375 4.0409375 -0.5625 3.0625 C-0.7790625 2.0415625 -0.7790625 2.0415625 -1 1 C-0.67 0.67 -0.34 0.34 0 0 Z " fill="#F4F4F4" transform="translate(185,272)"/>
<path d="M0 0 C2.375 -0.125 2.375 -0.125 5 0 C5.66 0.66 6.32 1.32 7 2 C6.625 4.125 6.625 4.125 6 6 C5.34 5.34 4.68 4.68 4 4 C1.42938689 3.35232207 1.42938689 3.35232207 -1 3 C-0.67 2.01 -0.34 1.02 0 0 Z " fill="#F2F4F2" transform="translate(116,279)"/>
<path d="M0 0 C1.98 0 3.96 0 6 0 C6.33 1.65 6.66 3.3 7 5 C4.69 4.01 2.38 3.02 0 2 C0 1.34 0 0.68 0 0 Z " fill="#F0F0F0" transform="translate(470,291)"/>
<path d="M0 0 C0.99 0 1.98 0 3 0 C3.625 1.8125 3.625 1.8125 4 4 C3.01 5.485 3.01 5.485 2 7 C0.68 6.67 -0.64 6.34 -2 6 C-1.34 6 -0.68 6 0 6 C0 4.02 0 2.04 0 0 Z " fill="#EEEEEF" transform="translate(506,273)"/>
<path d="M0 0 C0.99 0.33 1.98 0.66 3 1 C3 3.31 3 5.62 3 8 C2.01 8 1.02 8 0 8 C0 5.36 0 2.72 0 0 Z " fill="#F0F0F0" transform="translate(334,288)"/>
<path d="M0 0 C1.32 0 2.64 0 4 0 C4 2.31 4 4.62 4 7 C3.34 7 2.68 7 2 7 C2 5.68 2 4.36 2 3 C1.01 2.34 0.02 1.68 -1 1 C-0.67 0.67 -0.34 0.34 0 0 Z " fill="#ECF0F2" transform="translate(360,268)"/>
<path d="M0 0 C0.66 0 1.32 0 2 0 C3 3 3 3 2 6 C1.01 6.33 0.02 6.66 -1 7 C-0.67 4.69 -0.34 2.38 0 0 Z " fill="#F3F3F3" transform="translate(202,271)"/>
</svg>
