<?xml version="1.0" encoding="UTF-8"?>
<svg version="1.1" xmlns="http://www.w3.org/2000/svg" width="205" height="164">
<path d="M0 0 C2.72054622 2.06587327 5.02661387 4.4640954 7.375 6.9375 C8.01566406 7.58396484 8.65632813 8.23042969 9.31640625 8.89648438 C14 13.70490738 14 13.70490738 14 16 C14.70769531 16.02449219 15.41539063 16.04898438 16.14453125 16.07421875 C20.3790389 17.4471029 22.10415359 20.31531676 24.6875 23.8125 C25.17283203 24.44220703 25.65816406 25.07191406 26.15820312 25.72070312 C32 33.3996444 32 33.3996444 32 37.4375 C30.53985626 41.17911832 28.20048357 42.61666117 25 45 C26.0725 44.7525 27.145 44.505 28.25 44.25 C29.4875 44.1675 30.725 44.085 32 44 C33.37701298 45.28817344 34.70644173 46.62804426 36 48 C37.87018486 48.57889497 37.87018486 48.57889497 39.9375 48.9375 C44.22329624 49.80891883 45.95768507 51.87762415 49 55 C52.69553906 56.00087516 56.18452627 56.11221982 60 56 C59.67 57.32 59.34 58.64 59 60 C53.17547908 61.24811163 49.95759541 61.03190679 44.6640625 58.30078125 C42.68910314 56.75697499 41.95541312 55.29202642 41 53 C39.906875 53.226875 38.81375 53.45375 37.6875 53.6875 C34 54 34 54 32.0625 52.6875 C31 51 31 51 31 49 C26.545 49.495 26.545 49.495 22 50 C21.67 51.32 21.34 52.64 21 54 C22.051875 53.938125 23.10375 53.87625 24.1875 53.8125 C28.15816493 54.0077786 29.84196969 54.70325068 33 57 C32.125 61.875 32.125 61.875 31 63 C28.57602839 63.24916459 26.18138221 63.43062566 23.75 63.5625 C23.00508301 63.6035083 22.26016602 63.6445166 21.49267578 63.68676758 C15.2885466 63.99474234 9.08628787 64.13864841 2.875 64.1875 C1.56160645 64.20695679 1.56160645 64.20695679 0.22167969 64.22680664 C-4.91606556 64.23420831 -9.13422594 63.66807701 -14 62 C-13.75 60.125 -13.75 60.125 -13 58 C-10.13798179 56.20271599 -7.79925576 55.72159145 -4.453125 55.5859375 C-3.60878906 55.54726562 -2.76445313 55.50859375 -1.89453125 55.46875 C-1.02183594 55.4378125 -0.14914063 55.406875 0.75 55.375 C2.08224609 55.31699219 2.08224609 55.31699219 3.44140625 55.2578125 C5.6273998 55.16379127 7.81339062 55.07813857 10 55 C10.08119503 52.75059705 10.13927819 50.50035129 10.1875 48.25 C10.22230469 46.99703125 10.25710937 45.7440625 10.29296875 44.453125 C9.98606668 40.83577264 9.59963532 39.47208312 7 37 C6.030625 36.773125 5.06125 36.54625 4.0625 36.3125 C1 35 1 35 0.07421875 33.265625 C-0.19777344 32.53859375 -0.46976563 31.8115625 -0.75 31.0625 C-2.86533877 25.45775624 -6.57363378 21.86616795 -10.7578125 17.67578125 C-13.16507233 14.80300602 -14.1537204 12.63048939 -15 9 C-14.03398361 4.49192351 -11.69715347 2.58800743 -8 0 C-4.90099949 -1.54950025 -3.31347293 -0.98938594 0 0 Z M-8.1875 4.6875 C-10.12832769 6.81976123 -10.12832769 6.81976123 -10.48828125 9.21875 C-9.73409623 13.51458786 -6.99825842 15.78385382 -4 18.8125 C-3.42765625 19.40998047 -2.8553125 20.00746094 -2.265625 20.62304688 C-0.85476855 22.09268901 0.57119239 23.54780417 2 25 C5.76488042 23.27845212 8.15063897 21.00765886 11 18 C4.91758788 9.59349538 4.91758788 9.59349538 -3 3 C-6.06456796 2.69459827 -6.06456796 2.69459827 -8.1875 4.6875 Z M9.375 25 C8.42753906 25.8353125 8.42753906 25.8353125 7.4609375 26.6875 C6.97882813 27.120625 6.49671875 27.55375 6 28 C6.33 28.99 6.66 29.98 7 31 C8.15224028 30.07038578 9.29659176 29.1309875 10.4375 28.1875 C11.07558594 27.66542969 11.71367188 27.14335938 12.37109375 26.60546875 C14.2548275 24.99165589 14.2548275 24.99165589 15 22 C12.22957891 22 11.41835044 23.1836885 9.375 25 Z M18 26 C16.84217802 29.38084018 17.16164853 31.29663219 18.375 34.625 C18.65085938 35.40101562 18.92671875 36.17703125 19.2109375 36.9765625 C19.97351924 39.02345187 19.97351924 39.02345187 21 41 C21.61875 40.690625 22.2375 40.38125 22.875 40.0625 C24.25 39.375 25.625 38.6875 27 38 C26.56629155 33.2292071 24.35665609 29.36635741 21 26 C20.01 26 19.02 26 18 26 Z M15 35 C15 36.65 15 38.3 15 40 C15.33 40 15.66 40 16 40 C16 38.35 16 36.7 16 35 C15.67 35 15.34 35 15 35 Z " fill="#616161" transform="translate(78,32)"/>
<path d="M0 0 C0.99 0 1.98 0 3 0 C3 1.32 3 2.64 3 4 C3.66 4 4.32 4 5 4 C5.33 5.32 5.66 6.64 6 8 C5.34 8 4.68 8 4 8 C4 8.99 4 9.98 4 11 C4.66 11.33 5.32 11.66 6 12 C5.34 12.66 4.68 13.32 4 14 C3.35232207 16.57061311 3.35232207 16.57061311 3 19 C2.34 18.34 1.68 17.68 1 17 C0.360625 17.495 -0.27875 17.99 -0.9375 18.5 C-5.04023483 20.50950277 -8.51443582 20.26385672 -13 20 C-13 20.66 -13 21.32 -13 22 C-16.96 21.67 -20.92 21.34 -25 21 C-25.33 19.68 -25.66 18.36 -26 17 C-21.31311125 13.38051863 -16.86763844 13.46075119 -11.1875 13.3125 C-9.86202148 13.26125977 -9.86202148 13.26125977 -8.50976562 13.20898438 C-6.34027833 13.12689567 -4.1701611 13.06176121 -2 13 C-1.90912109 11.71802734 -1.90912109 11.71802734 -1.81640625 10.41015625 C-1.73261719 9.30542969 -1.64882812 8.20070313 -1.5625 7.0625 C-1.48128906 5.96035156 -1.40007812 4.85820313 -1.31640625 3.72265625 C-1 1 -1 1 0 0 Z " fill="#5A5A5A" transform="translate(90,74)"/>
<path d="M0 0 C0.66 0.99 1.32 1.98 2 3 C0.25 4.0625 0.25 4.0625 -2 5 C-2.680625 4.814375 -3.36125 4.62875 -4.0625 4.4375 C-4.701875 4.293125 -5.34125 4.14875 -6 4 C-8.35808404 5.51591117 -8.90161898 6.59554468 -9.5625 9.3125 C-8.91414251 12.41020802 -8.23227638 12.89888471 -5.9375 14.9375 C-4.26953125 16.44140625 -4.26953125 16.44140625 -3 18 C-3.125 21.375 -3.125 21.375 -4 24 C-14.85632731 13.45385347 -14.85632731 13.45385347 -15 9 C-13.88080084 4.52320338 -11.72018891 2.60413224 -8 0 C-5.06791253 -1.46604374 -3.11702298 -0.77925574 0 0 Z " fill="#545454" transform="translate(78,32)"/>
<path d="M0 0 C0.5775 0.165 1.155 0.33 1.75 0.5 C4.44471637 1.09882586 6.330571 0.57717384 9 0 C10 1 10 1 10.1328125 3.46875 C10.13023437 4.4690625 10.12765625 5.469375 10.125 6.5 C10.12757813 7.5003125 10.13015625 8.500625 10.1328125 9.53125 C10 12 10 12 9 13 C1.40963855 14.20481928 1.40963855 14.20481928 -1 13 C-1.02686553 11.02090602 -1.04633375 9.04171029 -1.0625 7.0625 C-1.07410156 5.96035156 -1.08570313 4.85820313 -1.09765625 3.72265625 C-1 1 -1 1 0 0 Z " fill="#3E3E3E" transform="translate(163,103)"/>
<path d="M0 0 C2.33294775 -0.04241723 4.66702567 -0.04092937 7 0 C8 1 8 1 8.09765625 3.72265625 C8.08605469 4.82480469 8.07445312 5.92695312 8.0625 7.0625 C8.05347656 8.16722656 8.04445312 9.27195312 8.03515625 10.41015625 C8.02355469 11.26480469 8.01195312 12.11945313 8 13 C1.84765625 13.09765625 1.84765625 13.09765625 0 13 C-1 12 -1 12 -1.1328125 9.78515625 C-1.13023437 8.88667969 -1.12765625 7.98820312 -1.125 7.0625 C-1.12757813 6.16660156 -1.13015625 5.27070312 -1.1328125 4.34765625 C-1 2 -1 2 0 0 Z " fill="#323232" transform="translate(138,103)"/>
<path d="M0 0 C2.875 -0.125 2.875 -0.125 6 0 C8 2 8 2 8.1953125 4.6015625 C8.17210938 5.59929687 8.14890625 6.59703125 8.125 7.625 C8.10695313 8.62789062 8.08890625 9.63078125 8.0703125 10.6640625 C8.03550781 11.82035156 8.03550781 11.82035156 8 13 C1.84765625 13.09765625 1.84765625 13.09765625 0 13 C-1 12 -1 12 -1.1328125 9.78515625 C-1.13023438 8.88667969 -1.12765625 7.98820312 -1.125 7.0625 C-1.12757812 6.16660156 -1.13015625 5.27070312 -1.1328125 4.34765625 C-1 2 -1 2 0 0 Z " fill="#3C3C3C" transform="translate(104,103)"/>
<path d="M0 0 C2.875 -0.125 2.875 -0.125 6 0 C8 2 8 2 8.1953125 4.6015625 C8.17210937 5.59929687 8.14890625 6.59703125 8.125 7.625 C8.10695313 8.62789062 8.08890625 9.63078125 8.0703125 10.6640625 C8.03550781 11.82035156 8.03550781 11.82035156 8 13 C4.23375329 14.25541557 2.62811066 13.37061958 -1 12 C-1.02698189 10.37509046 -1.04638757 8.75005367 -1.0625 7.125 C-1.07410156 6.22007813 -1.08570312 5.31515625 -1.09765625 4.3828125 C-1 2 -1 2 0 0 Z " fill="#404040" transform="translate(18,103)"/>
<path d="M0 0 C1.2375 0.1546875 1.2375 0.1546875 2.5 0.3125 C4.95811625 3.99967438 4.81118164 5.95595704 4.5 10.3125 C3.51 11.7975 3.51 11.7975 2.5 13.3125 C-0.625 13.5 -0.625 13.5 -3.5 13.3125 C-4.67673198 10.95903604 -4.66623866 9.4318967 -4.6875 6.8125 C-4.70167969 6.0184375 -4.71585938 5.224375 -4.73046875 4.40625 C-4.3700973 1.13236697 -3.17675031 0.39709379 0 0 Z " fill="#4C4C4C" transform="translate(34.5,102.6875)"/>
<path d="M0 0 C2.5625 0.1875 2.5625 0.1875 4.5625 2.1875 C4.7578125 4.7890625 4.7578125 4.7890625 4.6875 7.8125 C4.66945312 8.81539062 4.65140625 9.81828125 4.6328125 10.8515625 C4.59800781 12.00785156 4.59800781 12.00785156 4.5625 13.1875 C1.9225 13.1875 -0.7175 13.1875 -3.4375 13.1875 C-4.97367912 9.09102234 -4.12795256 5.39926063 -3.4375 1.1875 C-2.4375 0.1875 -2.4375 0.1875 0 0 Z " fill="#343434" transform="translate(128.4375,102.8125)"/>
<path d="M0 0 C2.5 -0.3125 2.5 -0.3125 5 0 C7 2 7 2 7.23046875 4.09375 C7.20919922 5.28484375 7.20919922 5.28484375 7.1875 6.5 C7.17783203 7.69109375 7.17783203 7.69109375 7.16796875 8.90625 C7 11 7 11 6 13 C3.69 13 1.38 13 -1 13 C-2.04336284 9.60907078 -2.22584687 6.5382677 -2 3 C-1.34 2.01 -0.68 1.02 0 0 Z " fill="#464646" transform="translate(80,103)"/>
<path d="M0 0 C2.5625 0.1875 2.5625 0.1875 4.5625 2.1875 C4.79296875 4.53515625 4.79296875 4.53515625 4.75 7.25 C4.74033203 8.59771484 4.74033203 8.59771484 4.73046875 9.97265625 C4.5625 12.1875 4.5625 12.1875 3.5625 13.1875 C1.22952567 13.22842937 -1.10455225 13.22991723 -3.4375 13.1875 C-4.59795439 8.93250059 -4.26654781 5.49854861 -3.4375 1.1875 C-2.4375 0.1875 -2.4375 0.1875 0 0 Z " fill="#444444" transform="translate(70.4375,102.8125)"/>
<path d="M0 0 C2.5625 0.1875 2.5625 0.1875 4.5625 2.1875 C4.79296875 4.53515625 4.79296875 4.53515625 4.75 7.25 C4.74033203 8.59771484 4.74033203 8.59771484 4.73046875 9.97265625 C4.5625 12.1875 4.5625 12.1875 3.5625 13.1875 C0.5625 13.3125 0.5625 13.3125 -2.4375 13.1875 C-3.4375 12.1875 -3.4375 12.1875 -3.5703125 9.71875 C-3.56773437 8.7184375 -3.56515625 7.718125 -3.5625 6.6875 C-3.56507813 5.6871875 -3.56765625 4.686875 -3.5703125 3.65625 C-3.39240141 0.34919677 -3.29604127 0.25354164 0 0 Z " fill="#4B4B4B" transform="translate(192.4375,102.8125)"/>
<path d="M0 0 C4.55555556 0.55555556 4.55555556 0.55555556 6 2 C6.09823937 3.66429051 6.12973631 5.33281931 6.125 7 C6.12757812 7.9075 6.13015625 8.815 6.1328125 9.75 C6 12 6 12 5 13 C2 13.125 2 13.125 -1 13 C-2.66561399 11.33438601 -2.17115945 9.34037295 -2.1875 7.0625 C-2.20167969 6.16660156 -2.21585937 5.27070312 -2.23046875 4.34765625 C-2 2 -2 2 0 0 Z " fill="#535353" transform="translate(93,103)"/>
<path d="M0 0 C1.4540625 0.0309375 1.4540625 0.0309375 2.9375 0.0625 C4.17117942 3.76353827 3.4838808 6.23783441 2.9375 10.0625 C3.2675 11.0525 3.5975 12.0425 3.9375 13.0625 C-1.8125 14.1875 -1.8125 14.1875 -4.0625 13.0625 C-4.08936553 11.08340602 -4.10883375 9.10421029 -4.125 7.125 C-4.13660156 6.02285156 -4.14820313 4.92070313 -4.16015625 3.78515625 C-4.02168594 -0.07539595 -3.9087853 0.07977113 0 0 Z " fill="#373737" transform="translate(181.0625,102.9375)"/>
<path d="M0 0 C1.98 0 3.96 0 6 0 C6 4.29 6 8.58 6 13 C3.69 13 1.38 13 -1 13 C-1.02686553 11.02090602 -1.04633375 9.04171029 -1.0625 7.0625 C-1.07410156 5.96035156 -1.08570313 4.85820313 -1.09765625 3.72265625 C-1 1 -1 1 0 0 Z " fill="#414141" transform="translate(56,103)"/>
<path d="M0 0 C2.625 0.25 2.625 0.25 4.5 1.4375 C5.625 3.25 5.625 3.25 5.3125 5.9375 C5.085625 6.700625 4.85875 7.46375 4.625 8.25 C3.635 8.58 2.645 8.91 1.625 9.25 C0.89176204 11.26508358 0.89176204 11.26508358 0.625 13.25 C-0.695 13.25 -2.015 13.25 -3.375 13.25 C-3.40186553 11.27090602 -3.42133375 9.29171029 -3.4375 7.3125 C-3.44910156 6.21035156 -3.46070313 5.10820313 -3.47265625 3.97265625 C-3.34278595 0.3518722 -3.34278595 0.3518722 0 0 Z " fill="#515151" transform="translate(8.375,102.75)"/>
<path d="M0 0 C0.8353125 0.433125 0.8353125 0.433125 1.6875 0.875 C2.450625 1.24625 3.21375 1.6175 4 2 C4.7425 2.37125 5.485 2.7425 6.25 3.125 C9.96300763 4.30641152 13.11088818 4.1318343 17 4 C16.67 5.32 16.34 6.64 16 8 C10.13472436 9.25684478 6.9590179 9.02991394 1.6640625 6.203125 C0 5 0 5 -2 2 C-1.34 1.34 -0.68 0.68 0 0 Z " fill="#717171" transform="translate(121,84)"/>
<path d="M0 0 C1.4540625 0.0309375 1.4540625 0.0309375 2.9375 0.0625 C4.19291557 3.82874671 3.30811958 5.43438934 1.9375 9.0625 C1.2775 9.0625 0.6175 9.0625 -0.0625 9.0625 C-0.0625 10.3825 -0.0625 11.7025 -0.0625 13.0625 C-1.3825 13.0625 -2.7025 13.0625 -4.0625 13.0625 C-4.08936553 11.08340602 -4.10883375 9.10421029 -4.125 7.125 C-4.13660156 6.02285156 -4.14820313 4.92070313 -4.16015625 3.78515625 C-4.02168594 -0.07539595 -3.9087853 0.07977113 0 0 Z " fill="#4C4C4C" transform="translate(47.0625,102.9375)"/>
<path d="M0 0 C0 0.66 0 1.32 0 2 C5.28 2 10.56 2 16 2 C16.33 2.66 16.66 3.32 17 4 C6.3120232 4.73259082 -4.28539694 5.14036598 -15 5 C-15 4.34 -15 3.68 -15 3 C-10.545 2.505 -10.545 2.505 -6 2 C-6.33 1.34 -6.66 0.68 -7 0 C-2.25 -1.125 -2.25 -1.125 0 0 Z " fill="#4B4B4B" transform="translate(92,91)"/>
<path d="M0 0 C2.31 0 4.62 0 7 0 C8.07310858 3.27185553 7.89263102 5.42947592 7.0625 8.75 C6.86785156 9.54921875 6.67320312 10.3484375 6.47265625 11.171875 C6.23869141 12.07679687 6.23869141 12.07679687 6 13 C4.68 13 3.36 13 2 13 C-0.28571429 4.57142857 -0.28571429 4.57142857 0 0 Z " fill="#484848" transform="translate(150,103)"/>
<path d="M0 0 C0.33 0.66 0.66 1.32 1 2 C-2.3 2.33 -5.6 2.66 -9 3 C-9.33 3.99 -9.66 4.98 -10 6 C-13.63 6 -17.26 6 -21 6 C-21.33 4.68 -21.66 3.36 -22 2 C-15.0463102 -0.3178966 -7.27482717 -0.13726089 0 0 Z " fill="#8C8C8C" transform="translate(88,87)"/>
<path d="M0 0 C1.09658936 3.28976808 0.79953138 4.71303767 0 8 C1.98 8 3.96 8 6 8 C5.67 10.31 5.34 12.62 5 15 C3.35 14.67 1.7 14.34 0 14 C0 12.68 0 11.36 0 10 C-1.32 10.33 -2.64 10.66 -4 11 C-4.75 9.3125 -4.75 9.3125 -5 7 C-3.125 4.375 -3.125 4.375 -1 2 C-0.67 1.34 -0.34 0.68 0 0 Z " fill="#494949" transform="translate(93,64)"/>
<path d="M0 0 C1.32 0 2.64 0 4 0 C4.66 0.66 5.32 1.32 6 2 C6.66 1.67 7.32 1.34 8 1 C8.33 2.65 8.66 4.3 9 6 C8.34 6 7.68 6 7 6 C7 6.99 7 7.98 7 9 C3.625 8.75 3.625 8.75 0 8 C-1.4375 5.9375 -1.4375 5.9375 -2 4 C-0.68 4.33 0.64 4.66 2 5 C2 4.01 2 3.02 2 2 C1.34 2 0.68 2 0 2 C0 1.34 0 0.68 0 0 Z " fill="#505050" transform="translate(80,60)"/>
<path d="M0 0 C2.33294775 -0.04241723 4.66702567 -0.04092937 7 0 C8 1 8 1 8.0625 4.5625 C8.041875 5.696875 8.02125 6.83125 8 8 C7.34 6.68 6.68 5.36 6 4 C4.03243548 4.03122943 4.03243548 4.03122943 2 5 C0.6954344 7.99615946 0.6954344 7.99615946 0 11 C-0.33 11 -0.66 11 -1 11 C-1.0270043 9.54176788 -1.04639787 8.08339325 -1.0625 6.625 C-1.07410156 5.81289062 -1.08570313 5.00078125 -1.09765625 4.1640625 C-1 2 -1 2 0 0 Z " fill="#4A4A4A" transform="translate(138,103)"/>
<path d="M0 0 C0.66 0.33 1.32 0.66 2 1 C2 4.63 2 8.26 2 12 C-0.64 12 -3.28 12 -6 12 C-6.33 10.68 -6.66 9.36 -7 8 C-6.01 8 -5.02 8 -4 8 C-3.01 7.67 -2.02 7.34 -1 7 C-0.67 4.69 -0.34 2.38 0 0 Z " fill="#4E4E4E" transform="translate(110,104)"/>
<path d="M0 0 C0.1953125 2.01822917 0.390625 4.03645833 0.5859375 6.0546875 C0.86374749 8.22668245 0.86374749 8.22668245 3 10 C0.36 10 -2.28 10 -5 10 C-6.10844919 6.67465243 -5.84454356 4.37817425 -5 1 C-2 0 -2 0 0 0 Z " fill="#555555" transform="translate(130,106)"/>
<path d="M0 0 C0.66 0.33 1.32 0.66 2 1 C2 1.66 2 2.32 2 3 C8.27 3 14.54 3 21 3 C21 3.33 21 3.66 21 4 C18.03 4 15.06 4 12 4 C12 4.66 12 5.32 12 6 C8.04 5.67 4.08 5.34 0 5 C-0.33 3.68 -0.66 2.36 -1 1 C-0.67 0.67 -0.34 0.34 0 0 Z " fill="#5A5A5A" transform="translate(65,90)"/>
<path d="M0 0 C0.66 0 1.32 0 2 0 C2 1.98 2 3.96 2 6 C-0.52475462 7.26237731 -2.31200466 7.09856404 -5.125 7.0625 C-6.03507812 7.05347656 -6.94515625 7.04445313 -7.8828125 7.03515625 C-8.58148438 7.02355469 -9.28015625 7.01195313 -10 7 C-9.67 6.01 -9.34 5.02 -9 4 C-9.66 3.67 -10.32 3.34 -11 3 C-5.555 2.505 -5.555 2.505 0 2 C0 1.34 0 0.68 0 0 Z " fill="#717171" transform="translate(88,86)"/>
<path d="M0 0 C0.99 0.33 1.98 0.66 3 1 C3.02687279 2.81242052 3.04633715 4.62495233 3.0625 6.4375 C3.07410156 7.44683594 3.08570313 8.45617187 3.09765625 9.49609375 C3 12 3 12 2 13 C-0.33297433 13.04092937 -2.66705225 13.04241723 -5 13 C-4.34 12.34 -3.68 11.68 -3 11 C-2.3574765 8.93125966 -2.3574765 8.93125966 -2 7 C-1.34 7 -0.68 7 0 7 C0.33 5.35 0.66 3.7 1 2 C0.34 1.67 -0.32 1.34 -1 1 C-0.67 0.67 -0.34 0.34 0 0 Z " fill="#4D4D4D" transform="translate(170,103)"/>
<path d="M0 0 C0.66 0.33 1.32 0.66 2 1 C2.99 1 3.98 1 5 1 C5.82638376 3.89234315 6 5.88742431 6 9 C4.35 9.33 2.7 9.66 1 10 C1.66 8.68 2.32 7.36 3 6 C2.01 5.67 1.02 5.34 0 5 C-0.75 3 -0.75 3 -1 1 C-0.67 0.67 -0.34 0.34 0 0 Z " fill="#3C3C3C" transform="translate(81,105)"/>
<path d="M0 0 C1.4540625 0.0309375 1.4540625 0.0309375 2.9375 0.0625 C4.03408936 3.35226808 3.73703138 4.77553767 2.9375 8.0625 C2.15375 7.546875 1.37 7.03125 0.5625 6.5 C-0.30375 6.025625 -1.17 5.55125 -2.0625 5.0625 C-3.0525 5.5575 -3.0525 5.5575 -4.0625 6.0625 C-4.105221 4.39638095 -4.10313832 2.72867115 -4.0625 1.0625 C-3.0625 0.0625 -3.0625 0.0625 0 0 Z " fill="#4D4D4D" transform="translate(181.0625,102.9375)"/>
<path d="M0 0 C1.5625 1.1875 1.5625 1.1875 3 3 C2.6875 5.6875 2.6875 5.6875 2 8 C-1.75 9.125 -1.75 9.125 -4 8 C-3.67 5.69 -3.34 3.38 -3 1 C-2.01 0.67 -1.02 0.34 0 0 Z " fill="#565656" transform="translate(91,46)"/>
<path d="M0 0 C3 1 3 1 4 3 C4.039992 4.99960012 4.04346799 7.00047242 4 9 C3.34 9 2.68 9 2 9 C1.67 9.99 1.34 10.98 1 12 C0.01 11.67 -0.98 11.34 -2 11 C-1.34 10.34 -0.68 9.68 0 9 C0.33333333 6.5 0.33333333 6.5 0 4 C-0.66 3.34 -1.32 2.68 -2 2 C-1.34 1.34 -0.68 0.68 0 0 Z " fill="#414141" transform="translate(35,103)"/>
<path d="M0 0 C0 2 0 2 -1.11328125 3.61328125 C-3.82270648 5.60468075 -5.87049289 5.29450023 -9.1875 5.1875 C-10.27417969 5.16042969 -11.36085938 5.13335937 -12.48046875 5.10546875 C-13.31191406 5.07066406 -14.14335938 5.03585938 -15 5 C-15 4.34 -15 3.68 -15 3 C-10.545 2.505 -10.545 2.505 -6 2 C-6.33 1.34 -6.66 0.68 -7 0 C-2.25 -1.125 -2.25 -1.125 0 0 Z " fill="#3B3B3B" transform="translate(92,91)"/>
<path d="M0 0 C0.33 1.65 0.66 3.3 1 5 C0.01 4.67 -0.98 4.34 -2 4 C-3.55853267 3.78196693 -5.12182651 3.59633644 -6.6875 3.4375 C-7.89986328 3.31181641 -7.89986328 3.31181641 -9.13671875 3.18359375 C-9.75160156 3.12300781 -10.36648437 3.06242187 -11 3 C-7.68381684 -0.31618316 -4.50821267 -1.6697084 0 0 Z " fill="#727272" transform="translate(110,88)"/>
<path d="M0 0 C1.98 0.99 1.98 0.99 4 2 C3.67 3.32 3.34 4.64 3 6 C5.33075929 5.04134491 5.33075929 5.04134491 7 2 C6.67 3.65 6.34 5.3 6 7 C5.01 7 4.02 7 3 7 C2.67 7.99 2.34 8.98 2 10 C1.34 10.66 0.68 11.32 0 12 C0 8.04 0 4.08 0 0 Z " fill="#3A3A3A" transform="translate(5,104)"/>
<path d="M0 0 C1.48117801 0.28127421 2.95993249 0.57533732 4.4375 0.875 C5.67306641 1.11863281 5.67306641 1.11863281 6.93359375 1.3671875 C7.61550781 1.57601562 8.29742187 1.78484375 9 2 C9.33 2.66 9.66 3.32 10 4 C6.36534398 6.32617985 3.23963281 6.31404687 -1 6 C-1.66 5.34 -2.32 4.68 -3 4 C-1.35 4 0.3 4 2 4 C2 3.34 2 2.68 2 2 C1.34 2 0.68 2 0 2 C0 1.34 0 0.68 0 0 Z " fill="#4F4F4F" transform="translate(113,80)"/>
<path d="M0 0 C0.103125 0.639375 0.20625 1.27875 0.3125 1.9375 C0.539375 2.618125 0.76625 3.29875 1 4 C1.99 4.33 2.98 4.66 4 5 C2.73058503 8.91402949 1.48832306 10.79072873 -2 13 C-2.33 12.01 -2.66 11.02 -3 10 C-2.33333333 8.66666667 -1.66666667 7.33333333 -1 6 C-0.96125079 4.33378384 -0.9549714 2.66605828 -1 1 C-0.67 0.67 -0.34 0.34 0 0 Z " fill="#5E5E5E" transform="translate(89,59)"/>
<path d="M0 0 C2.475 0.99 2.475 0.99 5 2 C5 3.32 5 4.64 5 6 C5.66 6 6.32 6 7 6 C7 6.66 7 7.32 7 8 C5.35 8 3.7 8 2 8 C1.67 7.01 1.34 6.02 1 5 C0.34 4.67 -0.32 4.34 -1 4 C-0.67 2.68 -0.34 1.36 0 0 Z " fill="#626262" transform="translate(108,76)"/>
<path d="M0 0 C2.125 0.9375 2.125 0.9375 4 2 C-0.625 6.875 -0.625 6.875 -4 8 C-4.66 7.34 -5.32 6.68 -6 6 C-2.25 1.125 -2.25 1.125 0 0 Z " fill="#5E5E5E" transform="translate(86,53)"/>
<path d="M0 0 C1.2065625 0.0309375 1.2065625 0.0309375 2.4375 0.0625 C2.4375 0.7225 2.4375 1.3825 2.4375 2.0625 C1.1175 2.0625 -0.2025 2.0625 -1.5625 2.0625 C-1.5625 5.0325 -1.5625 8.0025 -1.5625 11.0625 C0.0875 10.7325 1.7375 10.4025 3.4375 10.0625 C3.4375 11.0525 3.4375 12.0425 3.4375 13.0625 C1.1275 13.0625 -1.1825 13.0625 -3.5625 13.0625 C-3.58936553 11.08340602 -3.60883375 9.10421029 -3.625 7.125 C-3.63660156 6.02285156 -3.64820313 4.92070313 -3.66015625 3.78515625 C-3.52747618 0.086036 -3.52747618 0.086036 0 0 Z " fill="#474747" transform="translate(58.5625,102.9375)"/>
<path d="M0 0 C2.46800047 1.15173355 4.04783565 2.04783565 6 4 C5.625 7.125 5.625 7.125 5 10 C2.5 7.6875 2.5 7.6875 0 5 C0 3.33333333 0 1.66666667 0 0 Z " fill="#505050" transform="translate(69,46)"/>
<path d="M0 0 C0.66 0 1.32 0 2 0 C2 0.66 2 1.32 2 2 C2.66 2 3.32 2 4 2 C3.67 2.66 3.34 3.32 3 4 C2.34 4 1.68 4 1 4 C0.67 5.32 0.34 6.64 0 8 C1.32 8.66 2.64 9.32 4 10 C4 10.66 4 11.32 4 12 C1.03 11.505 1.03 11.505 -2 11 C-2.05399736 9.54207116 -2.09279177 8.08357288 -2.125 6.625 C-2.15980469 5.40683594 -2.15980469 5.40683594 -2.1953125 4.1640625 C-2 2 -2 2 0 0 Z " fill="#424242" transform="translate(93,103)"/>
<path d="M0 0 C0.66 0 1.32 0 2 0 C2.66 2.97 3.32 5.94 4 9 C2.68 9.33 1.36 9.66 0 10 C-1 9 -1 9 -1.125 5.5625 C-1 2 -1 2 0 0 Z " fill="#5A5A5A" transform="translate(95,63)"/>
<path d="M0 0 C0.99 0.33 1.98 0.66 3 1 C3 1.99 3 2.98 3 4 C4.32 4.33 5.64 4.66 7 5 C5.1875 7.5 5.1875 7.5 3 10 C2.01 10 1.02 10 0 10 C0 6.7 0 3.4 0 0 Z " fill="#2B2B2B" transform="translate(17,105)"/>
<path d="M0 0 C2.31 0 4.62 0 7 0 C7.33 1.32 7.66 2.64 8 4 C6.33333333 4 4.66666667 4 3 4 C2.34 5.32 1.68 6.64 1 8 C0.67 5.36 0.34 2.72 0 0 Z " fill="#575757" transform="translate(150,103)"/>
<path d="M0 0 C1.4540625 0.495 1.4540625 0.495 2.9375 1 C5.62149574 2.05173363 5.62149574 2.05173363 7 2 C7 3.98 7 5.96 7 8 C5.02 8 3.04 8 1 8 C1 7.01 1 6.02 1 5 C1.66 5.33 2.32 5.66 3 6 C3.33 5.34 3.66 4.68 4 4 C2.68 3.34 1.36 2.68 0 2 C0 1.34 0 0.68 0 0 Z " fill="#3A3A3A" transform="translate(190,107)"/>
<path d="M0 0 C1.32 0.66 2.64 1.32 4 2 C4 3.65 4 5.3 4 7 C3.01 7.33 2.02 7.66 1 8 C1 7.01 1 6.02 1 5 C0.34 5 -0.32 5 -1 5 C-0.67 6.32 -0.34 7.64 0 9 C-0.99 8.67 -1.98 8.34 -3 8 C-1.125 3.125 -1.125 3.125 0 2 C0 1.34 0 0.68 0 0 Z " fill="#4D4D4D" transform="translate(95,103)"/>
<path d="M0 0 C0.33 0.99 0.66 1.98 1 3 C-1.31 4.65 -3.62 6.3 -6 8 C-6.33 6.68 -6.66 5.36 -7 4 C-4.69 2.68 -2.38 1.36 0 0 Z " fill="#696969" transform="translate(108,69)"/>
<path d="M0 0 C1.32 0 2.64 0 4 0 C4 0.66 4 1.32 4 2 C3.01 2 2.02 2 1 2 C1.66 4.31 2.32 6.62 3 9 C2.34 9.66 1.68 10.32 1 11 C-1 9 -1 9 -1.1875 5.5 C-1 2 -1 2 0 0 Z " fill="#464646" transform="translate(104,103)"/>
<path d="M0 0 C2.625 -0.1875 2.625 -0.1875 5 0 C5.66 1.32 6.32 2.64 7 4 C6.01 4 5.02 4 4 4 C3.01 4.495 3.01 4.495 2 5 C1.67 5 1.34 5 1 5 C0.67 5.66 0.34 6.32 0 7 C-0.66 5.68 -1.32 4.36 -2 3 C-1.34 2.01 -0.68 1.02 0 0 Z " fill="#4E4E4E" transform="translate(80,103)"/>
<path d="M0 0 C1.9375 0.75 1.9375 0.75 4 2 C4.75 4.125 4.75 4.125 5 6 C4.01 6.495 4.01 6.495 3 7 C1.35 5.35 -0.3 3.7 -2 2 C-1.34 1.34 -0.68 0.68 0 0 Z " fill="#636363" transform="translate(121,84)"/>
<path d="M0 0 C0.66 0 1.32 0 2 0 C2.33 0.66 2.66 1.32 3 2 C3.66 1.67 4.32 1.34 5 1 C5 2.32 5 3.64 5 5 C2.36 5 -0.28 5 -3 5 C-1.625 2.5 -1.625 2.5 0 0 Z " fill="#4F4F4F" transform="translate(141,111)"/>
<path d="M0 0 C1.9375 0.8125 1.9375 0.8125 4 2 C4.33 2.99 4.66 3.98 5 5 C3.68 5.33 2.36 5.66 1 6 C0.01 4.68 -0.98 3.36 -2 2 C-1.34 1.34 -0.68 0.68 0 0 Z " fill="#656565" transform="translate(86,42)"/>
<path d="M0 0 C0.66 0 1.32 0 2 0 C2.33 1.98 2.66 3.96 3 6 C1.68 6.33 0.36 6.66 -1 7 C-1.04254356 5.00045254 -1.04080783 2.99958364 -1 1 C-0.67 0.67 -0.34 0.34 0 0 Z " fill="#3A3A3A" transform="translate(44,105)"/>
<path d="M0 0 C2.375 -0.1875 2.375 -0.1875 5 0 C5.66 0.99 6.32 1.98 7 3 C4.23735711 3.59732819 1.83967231 4 -1 4 C-0.67 2.68 -0.34 1.36 0 0 Z " fill="#434343" transform="translate(126,103)"/>
<path d="M0 0 C1.65 0 3.3 0 5 0 C4.67 1.32 4.34 2.64 4 4 C2.68 4.33 1.36 4.66 0 5 C-0.33 4.01 -0.66 3.02 -1 2 C-0.67 1.34 -0.34 0.68 0 0 Z " fill="#666666" transform="translate(133,88)"/>
<path d="M0 0 C4.455 0.99 4.455 0.99 9 2 C9 2.66 9 3.32 9 4 C6.36 4 3.72 4 1 4 C0.67 2.68 0.34 1.36 0 0 Z " fill="#616161" transform="translate(103,112)"/>
<path d="M0 0 C0.99 0.33 1.98 0.66 3 1 C3 1.99 3 2.98 3 4 C3.66 4 4.32 4 5 4 C5 4.99 5 5.98 5 7 C4.34 7 3.68 7 3 7 C3 6.34 3 5.68 3 5 C2.01 5.33 1.02 5.66 0 6 C0 4.02 0 2.04 0 0 Z " fill="#272727" transform="translate(163,106)"/>
<path d="M0 0 C0.33 0.66 0.66 1.32 1 2 C1.66 2.33 2.32 2.66 3 3 C2.67 5.31 2.34 7.62 2 10 C1.01 9.67 0.02 9.34 -1 9 C-1.125 2.25 -1.125 2.25 0 0 Z " fill="#323232" transform="translate(57,105)"/>
<path d="M0 0 C1.98 0 3.96 0 6 0 C6.33 0.99 6.66 1.98 7 3 C6.34 3.66 5.68 4.32 5 5 C4.34 4.34 3.68 3.68 3 3 C1.68 3 0.36 3 -1 3 C-0.67 2.01 -0.34 1.02 0 0 Z " fill="#595959" transform="translate(44,103)"/>
<path d="M0 0 C1.32 0.66 2.64 1.32 4 2 C2.68 2.99 1.36 3.98 0 5 C-1.32 4.34 -2.64 3.68 -4 3 C-2.68 2.01 -1.36 1.02 0 0 Z " fill="#585858" transform="translate(105,77)"/>
<path d="M0 0 C1.98 0 3.96 0 6 0 C6 3 6 3 5 5 C4.34 5 3.68 5 3 5 C3 4.01 3 3.02 3 2 C2.01 2 1.02 2 0 2 C0 1.34 0 0.68 0 0 Z " fill="#4D4D4D" transform="translate(18,103)"/>
<path d="M0 0 C0.99 0.33 1.98 0.66 3 1 C2.67 2.98 2.34 4.96 2 7 C0.68 6.34 -0.64 5.68 -2 5 C-1.67 4.34 -1.34 3.68 -1 3 C-0.67 2.01 -0.34 1.02 0 0 Z " fill="#434343" transform="translate(96,72)"/>
<path d="M0 0 C0.99 0.33 1.98 0.66 3 1 C4.32 1 5.64 1 7 1 C6.67 2.32 6.34 3.64 6 5 C4.02 4.34 2.04 3.68 0 3 C0 2.01 0 1.02 0 0 Z " fill="#5B5B5B" transform="translate(96,55)"/>
<path d="M0 0 C1.32 0 2.64 0 4 0 C4 0.99 4 1.98 4 3 C3.34 3 2.68 3 2 3 C0.37485532 4.45833358 0.37485532 4.45833358 -1 6 C-1.042721 4.33388095 -1.04063832 2.66617115 -1 1 C-0.67 0.67 -0.34 0.34 0 0 Z " fill="#464646" transform="translate(178,103)"/>
<path d="M0 0 C1.98 0 3.96 0 6 0 C6 0.66 6 1.32 6 2 C4.02 2.66 2.04 3.32 0 4 C-0.33 3.34 -0.66 2.68 -1 2 C-0.67 1.34 -0.34 0.68 0 0 Z " fill="#626262" transform="translate(100,86)"/>
<path d="M0 0 C1.32 0 2.64 0 4 0 C4 1.32 4 2.64 4 4 C2.35 4.33 0.7 4.66 -1 5 C-0.67 3.35 -0.34 1.7 0 0 Z " fill="#303030" transform="translate(83,110)"/>
<path d="M0 0 C2.86724686 0.57344937 3.8614515 0.8614515 6 3 C5.67 3.99 5.34 4.98 5 6 C3.35 6 1.7 6 0 6 C0.99 4.68 1.98 3.36 3 2 C2.01 1.67 1.02 1.34 0 1 C0 0.67 0 0.34 0 0 Z " fill="#343434" transform="translate(69,109)"/>
<path d="M0 0 C0.99 0.33 1.98 0.66 3 1 C3 2.65 3 4.3 3 6 C2.01 6 1.02 6 0 6 C0 4.02 0 2.04 0 0 Z " fill="#575757" transform="translate(33,106)"/>
</svg>
