<?xml version="1.0" encoding="UTF-8"?>
<svg version="1.1" xmlns="http://www.w3.org/2000/svg" width="264" height="204">
<path d="M0 0 C2.90256205 2.09950239 5.58689367 4.34803289 8 7 C8 7.66 8 8.32 8 9 C8.99 9.33 9.98 9.66 11 10 C12.16026622 11.43558363 13.25805236 12.92248903 14.3125 14.4375 C17.16587806 18.26224081 19.11973124 20.16678338 24 21 C24 22.65 24 24.3 24 26 C25.32 26 26.64 26 28 26 C28 26.66 28 27.32 28 28 C28.99 28.33 29.98 28.66 31 29 C31.68486725 30.32407669 32.34870203 31.65909241 33 33 C34.0209375 33.86625 34.0209375 33.86625 35.0625 34.75 C37.44162437 37.51285411 37.88080618 39.45173517 38.16796875 43.03125 C37.88780831 46.31499097 36.3928896 47.86580117 34 50 C31.75 50.8125 31.75 50.8125 30 51 C30 51.66 30 52.32 30 53 C29.01 53.495 29.01 53.495 28 54 C31.04913228 55.01111093 31.04913228 55.01111093 34 54 C36.3329866 53.95977609 38.66706666 53.95679753 41 54 C41.66 55.65 42.32 57.3 43 59 C43.88751953 58.89558594 43.88751953 58.89558594 44.79296875 58.7890625 C47.30741142 58.61678421 49.51058229 58.58299094 52 59 C54.625 61.8125 54.625 61.8125 57 65 C62.50744763 68.22133729 65.96767446 68.164133 72 67 C72 67.99 72 68.98 72 70 C67.38358247 72.30820876 61.92273018 71.28740776 57.1875 69.8125 C54 68 54 68 52.0625 65.3125 C50.29246083 62.82972611 50.29246083 62.82972611 48.05078125 62.71484375 C46.03187917 62.74746515 44.01497646 62.87000152 42 63 C41.01 62.505 41.01 62.505 40 62 C39.375 59.4375 39.375 59.4375 39 57 C38.32453125 57.15597656 37.6490625 57.31195313 36.953125 57.47265625 C36.06109375 57.66730469 35.1690625 57.86195312 34.25 58.0625 C33.36828125 58.25972656 32.4865625 58.45695312 31.578125 58.66015625 C29.01320972 58.99825872 27.42908361 58.81158635 25 58 C24.32326553 61.40320934 24.32326553 61.40320934 24 65 C24.99 65.99 24.99 65.99 26 67 C26.33 66.67 26.66 66.34 27 66 C28.64230364 65.8754514 30.29052276 65.82431476 31.9375 65.8125 C32.83339844 65.79832031 33.72929687 65.78414063 34.65234375 65.76953125 C37 66 37 66 39 68 C39.125 70.625 39.125 70.625 39 73 C30.86827055 77.06586472 17.94421795 75.15410248 8.93359375 75.13037109 C6.47650152 75.12494814 4.01958715 75.13038103 1.5625 75.13671875 C-0.01041707 75.13605894 -1.58333402 75.13477978 -3.15625 75.1328125 C-3.88541626 75.13483673 -4.61458252 75.13686096 -5.36584473 75.13894653 C-8.71822925 75.12344549 -11.79501698 75.04379622 -15 74 C-14.67 72.35 -14.34 70.7 -14 69 C-4.3143268 67.07035911 5.11549485 65.92696178 15 66 C14.96688725 63.10112882 14.89962106 60.20983378 14.8125 57.3125 C14.80669922 56.49587891 14.80089844 55.67925781 14.79492188 54.83789062 C14.6368963 50.50096652 14.41073773 48.53284895 11.6875 45 C9.38491441 43.28644793 7.94172397 42.28154831 5.1875 41.6875 C4.135625 41.460625 3.08375 41.23375 2 41 C2 40.34 2 39.68 2 39 C1.34 39 0.68 39 0 39 C-0.99 35.04 -1.98 31.08 -3 27 C-3.66 27 -4.32 27 -5 27 C-6.39131742 25.40288354 -7.71517335 23.74647316 -9 22.0625 C-11.54336771 18.48783076 -11.54336771 18.48783076 -15 16 C-15.96529569 12.13881723 -16.42782332 9.89639172 -14.6875 6.25 C-14.130625 5.5075 -13.57375 4.765 -13 4 C-12.34 3.01 -11.68 2.02 -11 1 C-7.01542467 -1.21365296 -4.31825513 -1.43941838 0 0 Z M-11 6 C-13.25455323 8.67875406 -13.25455323 8.67875406 -12.765625 10.97265625 C-10.63566245 16.61271015 -6.24485699 20.86986888 -2 25 C-1.34 25.99 -0.68 26.98 0 28 C2.546468 29.87879739 2.546468 29.87879739 6 30 C9.31288929 28.01118555 12.14880732 25.59775333 15 23 C13.83777182 14.97509113 4.48558827 8.32252121 -1.2734375 3.1796875 C-5.41052389 0.35299046 -7.82537562 3.15097812 -11 6 Z M17 24 C15.8274869 24.95117134 14.66212985 25.91117009 13.5 26.875 C12.8503125 27.40867187 12.200625 27.94234375 11.53125 28.4921875 C11.0259375 28.98976563 10.520625 29.48734375 10 30 C10 30.66 10 31.32 10 32 C9.01 32.495 9.01 32.495 8 33 C8 33.66 8 34.32 8 35 C10.86724686 34.42655063 11.8614515 34.1385485 14 32 C15.64991582 31.29289322 17.31562256 30.62056011 19 30 C19 29.34 19 28.68 19 28 C19.66 27.67 20.32 27.34 21 27 C19.68 26.01 18.36 25.02 17 24 Z M24 30 C23.01 30.99 22.02 31.98 21 33 C21.309375 33.825 21.61875 34.65 21.9375 35.5 C22.76626715 38.23005648 23.21650241 40.39891464 23.5 43.1875 C23.72265676 47.06259711 23.72265676 47.06259711 26 50 C29.81684226 48.44499019 32.19195732 45.96404505 35 43 C32.14190673 37.08147057 29.87008573 33.1398133 24 30 Z M0 32 C1 34 1 34 1 34 Z M12 39 C12.33 40.32 12.66 41.64 13 43 C13.66 43 14.32 43 15 43 C15 41.68 15 40.36 15 39 C14.01 39 13.02 39 12 39 Z M17 39 C17.12375 40.27875 17.2475 41.5575 17.375 42.875 C17.44460937 43.59429687 17.51421875 44.31359375 17.5859375 45.0546875 C17.86374749 47.22668245 17.86374749 47.22668245 20 49 C20.66 48.67 21.32 48.34 22 48 C21.34 45.03 20.68 42.06 20 39 C19.01 39 18.02 39 17 39 Z M18 52 C17.67 56.62 17.34 61.24 17 66 C17.99 65.67 18.98 65.34 20 65 C19.67 60.71 19.34 56.42 19 52 C18.67 52 18.34 52 18 52 Z M22 55 C23 59 23 59 23 59 Z M-11 71 C-11 71.33 -11 71.66 -11 72 C-1.1 72 8.8 72 19 72 C10.80293915 65.85220436 -1.38042669 69.5460294 -11 71 Z M22 71 C22 71.33 22 71.66 22 72 C29.05651252 72.14975239 29.05651252 72.14975239 36 71 C36 70.34 36 69.68 36 69 C28.77967794 68.7006013 28.77967794 68.7006013 22 71 Z " fill="#131313" transform="translate(103,50)"/>
<path d="M0 0 C1.32 0 2.64 0 4 0 C4 0.66 4 1.32 4 2 C5.65 1.34 7.3 0.68 9 0 C11.84769874 5.02535072 10.73396892 9.49523308 10 15 C6.37 15 2.74 15 -1 15 C-1.02693575 12.87506859 -1.04636628 10.75004088 -1.0625 8.625 C-1.07410156 7.44164062 -1.08570313 6.25828125 -1.09765625 5.0390625 C-1 2 -1 2 0 0 Z " fill="#060606" transform="translate(206,135)"/>
<path d="M0 0 C5.75 0.75 5.75 0.75 8 3 C8.1953125 5.6015625 8.1953125 5.6015625 8.125 8.625 C8.10695313 9.62789062 8.08890625 10.63078125 8.0703125 11.6640625 C8.03550781 12.82035156 8.03550781 12.82035156 8 14 C4.84319701 14.84181413 2.27427197 15 -1 15 C-1.22304441 13.25181409 -1.4278645 11.50129677 -1.625 9.75 C-1.74101562 8.77546875 -1.85703125 7.8009375 -1.9765625 6.796875 C-2.00112537 3.86570607 -1.5312717 2.45471036 0 0 Z M3 4 C4 6 4 6 4 6 Z " fill="#141314" transform="translate(33,135)"/>
<path d="M0 0 C5.5952381 0.5952381 5.5952381 0.5952381 8 3 C8.1953125 5.8203125 8.1953125 5.8203125 8.125 9.125 C8.10695312 10.22070312 8.08890625 11.31640625 8.0703125 12.4453125 C8.04710937 13.28835937 8.02390625 14.13140625 8 15 C7.01 15 6.02 15 5 15 C4.34 13.35 3.68 11.7 3 10 C3 11.65 3 13.3 3 15 C1.68 15 0.36 15 -1 15 C-2.01058283 11.76462662 -1.99200982 9.17014394 -1.625 5.8125 C-1.53476563 4.93207031 -1.44453125 4.05164063 -1.3515625 3.14453125 C-1 1 -1 1 0 0 Z M3 4 C4 6 4 6 4 6 Z " fill="#0B0B0A" transform="translate(136,135)"/>
<path d="M0 0 C1.10228696 4.40914783 1.07654536 8.48382401 1 13 C-0.32 13.33 -1.64 13.66 -3 14 C-3.33 13.01 -3.66 12.02 -4 11 C-4.33 11.99 -4.66 12.98 -5 14 C-5.99 14 -6.98 14 -8 14 C-8.33 9.05 -8.66 4.1 -9 -1 C-5.23375329 -2.25541557 -3.62811066 -1.37061958 0 0 Z M-5 3 C-5 3.66 -5 4.32 -5 5 C-4.34 5 -3.68 5 -3 5 C-3 4.34 -3 3.68 -3 3 C-3.66 3 -4.32 3 -5 3 Z " fill="#0C0C0A" transform="translate(169,136)"/>
<path d="M0 0 C1.1446875 0.3403125 1.1446875 0.3403125 2.3125 0.6875 C3.08461712 4.74111489 3.59400664 8.55873589 3.3125 12.6875 C1.3125 14.6875 1.3125 14.6875 -1.125 15.125 C-3.6875 14.6875 -3.6875 14.6875 -5.5 12.1875 C-5.891875 11.3625 -6.28375 10.5375 -6.6875 9.6875 C-6.0275 9.0275 -5.3675 8.3675 -4.6875 7.6875 C-4.9659375 6.4809375 -4.9659375 6.4809375 -5.25 5.25 C-5.6875 2.6875 -5.6875 2.6875 -4.5625 0.8125 C-2.6875 -0.3125 -2.6875 -0.3125 0 0 Z " fill="#0D0D0B" transform="translate(110.6875,135.3125)"/>
<path d="M0 0 C6.15234375 -0.09765625 6.15234375 -0.09765625 8 0 C9 1 9 1 9.09765625 4.16015625 C9.08605469 5.44792969 9.07445312 6.73570312 9.0625 8.0625 C9.05347656 9.35285156 9.04445312 10.64320313 9.03515625 11.97265625 C9.02355469 12.97167969 9.01195312 13.97070312 9 15 C7.68 15 6.36 15 5 15 C5 13.02 5 11.04 5 9 C4.34 9 3.68 9 3 9 C3 10.98 3 12.96 3 15 C2.01 15 1.02 15 0 15 C0 10.05 0 5.1 0 0 Z M3 3 C3 3.99 3 4.98 3 6 C3.66 6 4.32 6 5 6 C5 5.01 5 4.02 5 3 C4.34 3 3.68 3 3 3 Z " fill="#0F0F0F" transform="translate(176,135)"/>
<path d="M0 0 C3.375 0.25 3.375 0.25 7 1 C8.5 2.875 8.5 2.875 9 5 C8.67 5.99 8.34 6.98 8 8 C8.185625 8.845625 8.37125 9.69125 8.5625 10.5625 C8.706875 11.366875 8.85125 12.17125 9 13 C7 15 7 15 3.9375 15.1875 C1 15 1 15 0 14 C0 11.66666667 0 9.33333333 0 7 C-0.185625 6.071875 -0.37125 5.14375 -0.5625 4.1875 C-1 2 -1 2 0 0 Z M4 4 C5 6 5 6 5 6 Z " fill="#0C0C0C" transform="translate(91,135)"/>
<path d="M0 0 C2.375 0.3125 2.375 0.3125 5 1 C7.19398856 4.29098284 7.21503664 4.84832581 6.75 8.5625 C6.66234375 9.34753906 6.5746875 10.13257813 6.484375 10.94140625 C6 13 6 13 4 15 C1.5 15.3125 1.5 15.3125 -1 15 C-3 12 -3 12 -3 9 C-2.34 9 -1.68 9 -1 9 C-1.391875 8.2575 -1.78375 7.515 -2.1875 6.75 C-2.455625 5.8425 -2.72375 4.935 -3 4 C-1.625 1.6875 -1.625 1.6875 0 0 Z " fill="#0B0B0B" transform="translate(240,135)"/>
<path d="M0 0 C3.29714793 0.32971479 4.6226839 0.6226839 7 3 C7.265625 5.05859375 7.265625 5.05859375 7.25 7.4375 C7.25515625 8.21996094 7.2603125 9.00242188 7.265625 9.80859375 C7 12 7 12 5 15 C2.5625 15.5 2.5625 15.5 0 15 C-2.12286005 12.73561595 -2.98539773 11.09099799 -3.02734375 7.95703125 C-2.4784919 2.4784919 -2.4784919 2.4784919 0 0 Z M2 4 C0.70366379 5.06645115 0.70366379 5.06645115 0.9375 7.5625 C0.958125 8.366875 0.97875 9.17125 1 10 C1.99 10.495 1.99 10.495 3 11 C3 8.69 3 6.38 3 4 C2.67 4 2.34 4 2 4 Z " fill="#0E0E0E" transform="translate(122,135)"/>
<path d="M0 0 C3.125 -0.1875 3.125 -0.1875 6 0 C8.20836941 5.19616332 8.00994818 8.58300519 7 14 C6 15 6 15 3 15.125 C0 15 0 15 -1 14 C-1.28752439 12.21676795 -1.50590214 10.4221113 -1.6875 8.625 C-1.79449219 7.64789063 -1.90148438 6.67078125 -2.01171875 5.6640625 C-2 3 -2 3 0 0 Z M3 4 C3 6.31 3 8.62 3 11 C3.33 11 3.66 11 4 11 C4 8.69 4 6.38 4 4 C3.67 4 3.34 4 3 4 Z " fill="#0B0B0A" transform="translate(48,135)"/>
<path d="M0 0 C2.9375 0.25 2.9375 0.25 6 1 C8 4 8 4 7.8125 6.5625 C7 9 7 9 4 11 C2.80767387 13.05003955 2.80767387 13.05003955 2 15 C1.01 15 0.02 15 -1 15 C-1.02685412 12.68756208 -1.04632841 10.3750373 -1.0625 8.0625 C-1.07410156 6.77472656 -1.08570312 5.48695313 -1.09765625 4.16015625 C-1 1 -1 1 0 0 Z M3 4 C4 6 4 6 4 6 Z " fill="#090909" transform="translate(18,135)"/>
<path d="M0 0 C2.64 0.33 5.28 0.66 8 1 C7.67 1.99 7.34 2.98 7 4 C6.01 4 5.02 4 4 4 C4 4.66 4 5.32 4 6 C4.99 6 5.98 6 7 6 C7 6.99 7 7.98 7 9 C6.01 9 5.02 9 4 9 C4 9.66 4 10.32 4 11 C4.99 11 5.98 11 7 11 C7 12.32 7 13.64 7 15 C4.69 15 2.38 15 0 15 C0 10.05 0 5.1 0 0 Z " fill="#090909" transform="translate(77,135)"/>
<path d="M0 0 C1.98 0 3.96 0 6 0 C6.66 0.66 7.32 1.32 8 2 C7.67 2.66 7.34 3.32 7 4 C5.68 4 4.36 4 3 4 C3 4.66 3 5.32 3 6 C4.32 6 5.64 6 7 6 C7 6.99 7 7.98 7 9 C5.68 9 4.36 9 3 9 C3 9.66 3 10.32 3 11 C4.32 11 5.64 11 7 11 C7 12.32 7 13.64 7 15 C4.69 15 2.38 15 0 15 C0 10.05 0 5.1 0 0 Z " fill="#0C0C0B" transform="translate(224,135)"/>
<path d="M0 0 C6 0 6 0 8 1 C8 1.99 8 2.98 8 4 C6.68 4 5.36 4 4 4 C4 4.66 4 5.32 4 6 C4.99 6 5.98 6 7 6 C7 6.99 7 7.98 7 9 C6.34 9.66 5.68 10.32 5 11 C4.3574765 13.06874034 4.3574765 13.06874034 4 15 C2.68 15 1.36 15 0 15 C0 10.05 0 5.1 0 0 Z " fill="#0C0C0B" transform="translate(62,135)"/>
<path d="M0 0 C2.31 0.33 4.62 0.66 7 1 C6.34 5.62 5.68 10.24 5 15 C4.01 15 3.02 15 2 15 C-0.44615385 5.54153846 -0.44615385 5.54153846 -1 1 C-0.67 0.67 -0.34 0.34 0 0 Z " fill="#0A0A0A" transform="translate(192,135)"/>
<path d="M0 0 C6.33333333 0 12.66666667 0 19 0 C18.67 0.99 18.34 1.98 18 3 C15.94921875 3.22786458 13.8984375 3.45572917 11.84765625 3.68359375 C9.98859771 3.81886614 9.98859771 3.81886614 9 5 C7.48071962 5.07179964 5.95832518 5.08392007 4.4375 5.0625 C3.61121094 5.05347656 2.78492187 5.04445313 1.93359375 5.03515625 C1.29550781 5.02355469 0.65742187 5.01195313 0 5 C0 3.35 0 1.7 0 0 Z " fill="#1C1C1C" transform="translate(120,116)"/>
<path d="M0 0 C5.75 0.75 5.75 0.75 8 3 C8.1953125 5.6015625 8.1953125 5.6015625 8.125 8.625 C8.10695313 9.62789062 8.08890625 10.63078125 8.0703125 11.6640625 C8.03550781 12.82035156 8.03550781 12.82035156 8 14 C6.68 14.33 5.36 14.66 4 15 C4 14.34 4 13.68 4 13 C4.66 13 5.32 13 6 13 C6 11.35 6 9.7 6 8 C4.35 8 2.7 8 1 8 C1.639375 7.71125 2.27875 7.4225 2.9375 7.125 C5.15206079 6.17176549 5.15206079 6.17176549 6 4 C5.01 4 4.02 4 3 4 C2.67 4.66 2.34 5.32 2 6 C1.67 5.34 1.34 4.68 1 4 C0.01 4 -0.98 4 -2 4 C-1.34 2.68 -0.68 1.36 0 0 Z " fill="#090909" transform="translate(33,135)"/>
<path d="M0 0 C0.598125 0.226875 1.19625 0.45375 1.8125 0.6875 C1.4825 1.3475 1.1525 2.0075 0.8125 2.6875 C-0.1775 3.0175 -1.1675 3.3475 -2.1875 3.6875 C-2.1875 4.6775 -2.1875 5.6675 -2.1875 6.6875 C-1.5275 7.3475 -0.8675 8.0075 -0.1875 8.6875 C-0.8475 8.6875 -1.5075 8.6875 -2.1875 8.6875 C-0.81264468 10.22916642 -0.81264468 10.22916642 0.8125 11.6875 C1.4725 11.6875 2.1325 11.6875 2.8125 11.6875 C2.4825 12.6775 2.1525 13.6675 1.8125 14.6875 C-0.5 15 -0.5 15 -3.1875 14.6875 C-5 12.1875 -5 12.1875 -6.1875 9.6875 C-5.5275 9.0275 -4.8675 8.3675 -4.1875 7.6875 C-4.4659375 6.4809375 -4.4659375 6.4809375 -4.75 5.25 C-5.1875 2.6875 -5.1875 2.6875 -4 0.8125 C-2.1875 -0.3125 -2.1875 -0.3125 0 0 Z " fill="#151513" transform="translate(110.1875,135.3125)"/>
<path d="M0 0 C1.65 0.33 3.3 0.66 5 1 C4.67 2.32 4.34 3.64 4 5 C3.34 4.34 2.68 3.68 2 3 C2.185625 3.556875 2.37125 4.11375 2.5625 4.6875 C3.07551165 7.399133 2.6640724 9.34371039 2 12 C-1 12 -1 12 -3 11 C-3 10.34 -3 9.68 -3 9 C-2.34 9 -1.68 9 -1 9 C-1.391875 8.2575 -1.78375 7.515 -2.1875 6.75 C-2.455625 5.8425 -2.72375 4.935 -3 4 C-1.625 1.6875 -1.625 1.6875 0 0 Z " fill="#161614" transform="translate(240,135)"/>
<path d="M0 0 C0.99 0.66 1.98 1.32 3 2 C3.1875 4.625 3.1875 4.625 3 7 C0.53630468 8.23184766 -1.1894501 8.16732342 -3.9375 8.1875 C-4.81277344 8.20167969 -5.68804687 8.21585938 -6.58984375 8.23046875 C-9 8 -9 8 -12 6 C-6.06 5.505 -6.06 5.505 0 5 C-0.33 3.68 -0.66 2.36 -1 1 C-0.67 0.67 -0.34 0.34 0 0 Z " fill="#191718" transform="translate(139,116)"/>
<path d="M0 0 C0.66 0 1.32 0 2 0 C2 2.31 2 4.62 2 7 C3.32 7.33 4.64 7.66 6 8 C5.34 8 4.68 8 4 8 C4 9.98 4 11.96 4 14 C2.68 14 1.36 14 0 14 C-1.03115279 10.73086376 -0.9638984 8.13958652 -0.5625 4.75 C-0.46066406 3.85796875 -0.35882813 2.9659375 -0.25390625 2.046875 C-0.17011719 1.37140625 -0.08632812 0.6959375 0 0 Z " fill="#111110" transform="translate(135,136)"/>
<path d="M0 0 C0.33 0.99 0.66 1.98 1 3 C2.32 2.67 3.64 2.34 5 2 C5.66 3.65 6.32 5.3 7 7 C5.02 7.33 3.04 7.66 1 8 C0.67 7.34 0.34 6.68 0 6 C0.33 5.34 0.66 4.68 1 4 C0.01 4 -0.98 4 -2 4 C-2.33 4.99 -2.66 5.98 -3 7 C-3.33 5.68 -3.66 4.36 -4 3 C-2.68 2.01 -1.36 1.02 0 0 Z M7 3 C7.66 3.66 8.32 4.32 9 5 C8.34 5 7.68 5 7 5 C7 4.34 7 3.68 7 3 Z " fill="#101010" transform="translate(110,82)"/>
<path d="M0 0 C2.97 0.495 2.97 0.495 6 1 C6 1.99 6 2.98 6 4 C6.66 4.33 7.32 4.66 8 5 C8.33 4.34 8.66 3.68 9 3 C9.33 4.32 9.66 5.64 10 7 C2.25 7.125 2.25 7.125 0 6 C0 5.34 0 4.68 0 4 C-0.66 4 -1.32 4 -2 4 C-2 3.34 -2 2.68 -2 2 C-1.34 2 -0.68 2 0 2 C0 1.34 0 0.68 0 0 Z " fill="#1C1C1C" transform="translate(105,85)"/>
<path d="M0 0 C0.66 0 1.32 0 2 0 C2 1.32 2 2.64 2 4 C2.99 4.33 3.98 4.66 5 5 C4.25 7.9375 4.25 7.9375 3 11 C0.875 11.875 0.875 11.875 -1 12 C-1.08159574 7.83861737 -0.98248524 4.0527516 0 0 Z " fill="#101010" transform="translate(18,138)"/>
<path d="M0 0 C0 2.97 0 5.94 0 9 C-2.9375 8.25 -2.9375 8.25 -6 7 C-6.875 4.875 -6.875 4.875 -7 3 C-2.25 0 -2.25 0 0 0 Z " fill="#0F0F0E" transform="translate(216,141)"/>
<path d="M0 0 C0.99 0 1.98 0 3 0 C3.66 0.99 4.32 1.98 5 3 C5.99 3 6.98 3 8 3 C8.33 4.65 8.66 6.3 9 8 C8.34 8 7.68 8 7 8 C7 8.66 7 9.32 7 10 C6.34 10 5.68 10 5 10 C3.95355934 8.36209288 2.9601817 6.68991979 2 5 C1.01755155 3.65368175 0.02323436 2.31558703 -1 1 C-0.67 0.67 -0.34 0.34 0 0 Z " fill="#101010" transform="translate(113,91)"/>
<path d="M0 0 C0.99 0.33 1.98 0.66 3 1 C3 5.62 3 10.24 3 15 C2.01 15 1.02 15 0 15 C0 10.05 0 5.1 0 0 Z " fill="#111111" transform="translate(176,135)"/>
<path d="M0 0 C0.66 0.33 1.32 0.66 2 1 C2 1.66 2 2.32 2 3 C2.99 3.33 3.98 3.66 5 4 C6.39712274 5.95597184 7.73779907 7.95436401 9 10 C8.01 10.66 7.02 11.32 6 12 C6 11.34 6 10.68 6 10 C5.01 9.67 4.02 9.34 3 9 C0.75 6.125 0.75 6.125 -1 3 C-0.67 2.01 -0.34 1.02 0 0 Z " fill="#0A0A09" transform="translate(109,56)"/>
<path d="M0 0 C0.99 0 1.98 0 3 0 C3 0.99 3 1.98 3 3 C2.01 3 1.02 3 0 3 C0 3.66 0 4.32 0 5 C0.99 5 1.98 5 3 5 C3 6.32 3 7.64 3 9 C1.02 9 -0.96 9 -3 9 C-2.25 2.25 -2.25 2.25 0 0 Z " fill="#10100E" transform="translate(81,141)"/>
<path d="M0 0 C1.32 0.33 2.64 0.66 4 1 C4 3 4 3 1.625 5.4375 C0.75875 6.283125 -0.1075 7.12875 -1 8 C-1.66 8.99 -2.32 9.98 -3 11 C-3.75 8.3125 -3.75 8.3125 -4 5 C-2.0625 2.125 -2.0625 2.125 0 0 Z " fill="#171717" transform="translate(92,51)"/>
<path d="M0 0 C1.32 0.66 2.64 1.32 4 2 C4 5.63 4 9.26 4 13 C3.67 11.68 3.34 10.36 3 9 C1.68 9.33 0.36 9.66 -1 10 C-1 8.68 -1 7.36 -1 6 C-0.01 6 0.98 6 2 6 C2 5.01 2 4.02 2 3 C1.34 3 0.68 3 0 3 C0 2.01 0 1.02 0 0 Z " fill="#050505" transform="translate(179,135)"/>
<path d="M0 0 C2.625 0.375 2.625 0.375 5 1 C3.68 1.33 2.36 1.66 1 2 C1 4.97 1 7.94 1 11 C-2 8 -2 8 -2.3125 4.9375 C-2 2 -2 2 0 0 Z " fill="#121212" transform="translate(122,135)"/>
<path d="M0 0 C2.625 0.375 2.625 0.375 5 1 C5 1.99 5 2.98 5 4 C3.02 4.66 1.04 5.32 -1 6 C-1.625 4.125 -1.625 4.125 -2 2 C-1.34 1.34 -0.68 0.68 0 0 Z " fill="#171717" transform="translate(117,81)"/>
<path d="M0 0 C0.33 0.99 0.66 1.98 1 3 C3.01508358 3.73323796 3.01508358 3.73323796 5 4 C4.34 5.65 3.68 7.3 3 9 C2.01 9 1.02 9 0 9 C0 6.03 0 3.06 0 0 Z " fill="#0B0B0B" transform="translate(32,141)"/>
<path d="M0 0 C0.598125 0.165 1.19625 0.33 1.8125 0.5 C4.11344336 1.1114124 4.11344336 1.1114124 7 1 C5.8141763 4.37503669 4.72426311 6.64722731 2 9 C1.01879536 5.94736336 1.01879536 4.05263664 2 1 C1.34 0.67 0.68 0.34 0 0 Z " fill="#050505" transform="translate(240,137)"/>
<path d="M0 0 C2.97 0 5.94 0 9 0 C8.67 0.99 8.34 1.98 8 3 C5.36 3 2.72 3 0 3 C0 2.01 0 1.02 0 0 Z " fill="#262425" transform="translate(130,116)"/>
<path d="M0 0 C0 2.97 0 5.94 0 9 C-0.99 9 -1.98 9 -3 9 C-3 6.36 -3 3.72 -3 1 C-1 0 -1 0 0 0 Z " fill="#131212" transform="translate(50,140)"/>
<path d="M0 0 C1.67542976 0.28604898 3.34385343 0.61781233 5 1 C4.67 2.32 4.34 3.64 4 5 C3.67 4.34 3.34 3.68 3 3 C2.01 2.67 1.02 2.34 0 2 C0 3.65 0 5.3 0 7 C-0.99 6.67 -1.98 6.34 -3 6 C-1.125 1.125 -1.125 1.125 0 0 Z " fill="#0E0E0E" transform="translate(240,135)"/>
<path d="M0 0 C0.99 0 1.98 0 3 0 C3.33 1.98 3.66 3.96 4 6 C2.02 6.33 0.04 6.66 -2 7 C-1.125 2.25 -1.125 2.25 0 0 Z " fill="#0C0C0B" transform="translate(126,99)"/>
<path d="M0 0 C2.97 0.495 2.97 0.495 6 1 C6 1.66 6 2.32 6 3 C5.34 3 4.68 3 4 3 C3.67 3.99 3.34 4.98 3 6 C-0.875 4.25 -0.875 4.25 -2 2 C-1.34 2 -0.68 2 0 2 C0 1.34 0 0.68 0 0 Z " fill="#161615" transform="translate(93,142)"/>
<path d="M0 0 C0 0.99 0 1.98 0 3 C-3.63 3 -7.26 3 -11 3 C-10.67 2.34 -10.34 1.68 -10 1 C-6.6322481 0.06451336 -3.4815554 -0.09947301 0 0 Z " fill="#202020" transform="translate(142,104)"/>
<path d="M0 0 C1.32 0 2.64 0 4 0 C4 2.97 4 5.94 4 9 C0 3 0 3 0 0 Z " fill="#060606" transform="translate(123,137)"/>
<path d="M0 0 C1.32 0 2.64 0 4 0 C4 0.99 4 1.98 4 3 C4.99 3.33 5.98 3.66 7 4 C5 5 5 5 1.875 4.0625 C0.92625 3.711875 -0.0225 3.36125 -1 3 C-0.67 2.01 -0.34 1.02 0 0 Z " fill="#191919" transform="translate(123,73)"/>
<path d="M0 0 C3.37462715 0.54723683 5.08235 1.0549 8 3 C6.02 3.33 4.04 3.66 2 4 C2 3.34 2 2.68 2 2 C1.34 2 0.68 2 0 2 C0 1.34 0 0.68 0 0 Z " fill="#0F1110" transform="translate(122,121)"/>
<path d="M0 0 C2 3 2 3 2 7 C1.01 7 0.02 7 -1 7 C-1.04254356 5.00045254 -1.04080783 2.99958364 -1 1 C-0.67 0.67 -0.34 0.34 0 0 Z " fill="#0D0D0D" transform="translate(195,143)"/>
<path d="" fill="#000000" transform="translate(0,0)"/>
<path d="" fill="#000000" transform="translate(0,0)"/>
<path d="" fill="#000000" transform="translate(0,0)"/>
</svg>
